<svg width="240" height="240" viewBox="0 0 240 240" xmlns="http://www.w3.org/2000/svg">
  <defs>
    <!-- Color principal del patrón (puedes cambiarlo) -->
    <style>
      .leaf {
        fill: none;
        stroke: #2d5a3d;
        stroke-width: 1.4;
        stroke-linecap: round;
        stroke-linejoin: round;
        opacity: 0.6;
      }
    </style>
  </defs>

  <!-- Hoja 1 -->
  <g transform="translate(40 40) rotate(-12)">
    <path class="leaf" d="
      M 0 20
      Q 12 -6 32 0
      Q 40 24 18 38
      Q -2 32 0 20 Z"></path>
    <path class="leaf" d="M 4 18 Q 16 16 26 6"></path>
    <path class="leaf" d="M 6 24 Q 18 24 30 16"></path>
  </g>

  <!-- Hoja 2 -->
  <g transform="translate(160 55) rotate(18)">
    <path class="leaf" d="
      M 0 18
      Q 10 -4 26 0
      Q 34 22 16 32
      Q -2 28 0 18 Z"></path>
    <path class="leaf" d="M 3 16 Q 12 14 22 4"></path>
    <path class="leaf" d="M 4 22 Q 15 22 26 14"></path>
  </g>

  <!-- Hoja 3 -->
  <g transform="translate(70 160) rotate(8)">
    <path class="leaf" d="
      M 0 22
      Q 14 -2 34 2
      Q 42 26 20 40
      Q -2 34 0 22 Z"></path>
    <path class="leaf" d="M 4 20 Q 18 18 28 6"></path>
    <path class="leaf" d="M 6 26 Q 20 26 32 18"></path>
  </g>

  <!-- Hoja 4 -->
  <g transform="translate(175 165) rotate(-20)">
    <path class="leaf" d="
      M 0 20
      Q 12 -4 30 0
      Q 38 22 18 34
      Q -2 30 0 20 Z"></path>
    <path class="leaf" d="M 3 18 Q 14 16 24 6"></path>
    <path class="leaf" d="M 4 24 Q 16 24 28 16"></path>
  </g>

  <!-- Ramas suaves para rellenar huecos -->
  <g class="leaf" opacity="0.4">
    <path d="M 10 120 Q 40 90 80 100"></path>
    <path d="M 150 30 Q 190 50 220 40"></path>
    <path d="M 130 210 Q 170 190 210 200"></path>
    <path d="M 20 30 Q 50 50 70 40"></path>
  </g>
</svg>
