<?xml version="1.0" encoding="utf-8"?>
<!-- Generator: Adobe Illustrator 24.1.1, SVG Export Plug-In . SVG Version: 6.00 Build 0)  -->
<svg version="1.1" id="Capa_1" xmlns="http://www.w3.org/2000/svg" xmlns:xlink="http://www.w3.org/1999/xlink" x="0px" y="0px"
	 viewBox="0 0 830 265" style="enable-background:new 0 0 830 265;" xml:space="preserve">
<style type="text/css">
	.st0{fill:#BF134E;}
</style>
<g>
	<path class="st0" d="M129.4,127.1c0.6,0.6,1.7,0.9,2.8,0.5c0.2,0.5,0.6,0.9,1.1,1.1c0.3,0.1,0.5,0.1,0.8,0.1c0.6,0,1.2-0.3,1.8-0.7
		c0.7,1.1,2.5,1.3,4.4,1.3c1.1,0,2.2-0.1,3.1-0.2c0.5,0,1-0.1,1.3-0.1c2.4-0.1,4-0.6,5.3-2.2c1.2,0.4,4.3,1.2,7.7-3.4
		c1-0.3,5.9-2.1,5-7.4c0.7-0.7,3-3.1,1.7-6.3c0.2-0.7,0.7-3-0.4-4.1c-0.2-0.5-1.3-2.7-3.2-3.1c-1.2-0.2-2.4,0.3-3.6,1.5
		c-0.2,0.2-0.7,0.7-0.9,1.3c-1.1,0.6-1.5,1.8-1.7,2.2c-0.9,0.4-1.4,1.3-1.6,1.8c-1.6-0.3-3.4,0.1-5.3,1.1c-1.3-1-2.8-1.5-4.5-1.5h0
		c-2.1,0-4.2,0.9-5.8,2.8c-2.1,2.4-3.2,5.8-2.9,9.1c-0.5,0-0.9,0.1-1.3,0.4c-0.7,0.5-1.1,1.3-1.2,2.3v0h0c-0.9-0.1-1.7,0.2-2.3,0.8
		C128.6,125.4,128.9,126.5,129.4,127.1 M153.6,110.4c2.3,0.9,3.1,3.4,3.2,3.4l0.8-0.3c0-0.1-1-2.9-3.7-3.9c0,0,0,0,0,0
		c0.2-0.5,0.7-1.3,1.6-1.4c0.9-0.2,2.4,0.3,4.9,3.4l0.7-0.6c-2-2.6-3.8-3.8-5.3-3.7c0.2-0.4,0.6-1,1.4-1.3c1.1-0.4,2.6,0,4.3,1.2
		l0.5-0.7c-1.6-1.1-3.1-1.6-4.3-1.5c0.1-0.1,0.1-0.2,0.2-0.2c1-1,1.9-1.4,2.8-1.2c1.6,0.3,2.6,2.6,2.6,2.6l0,0.1l0.1,0.1
		c0.8,0.7,0.4,2.7,0.2,3.5l0,0.2l0.1,0.1c1.4,3.1-1.5,5.5-1.6,5.6l-0.2,0.2l0,0.3c1,5.2-4.3,6.6-4.5,6.7l-0.2,0l-0.1,0.1
		c-2.6,3.7-5.3,3.7-6.6,3.4c2.1-3.4,2.2-8.4,0.2-12.4c-0.6-1.1-1.3-2.1-2.1-2.8C150.4,110.1,152.2,109.9,153.6,110.4 M130.3,124.9
		c0.5-0.5,1.2-0.5,1.6-0.5c0.4,0.1,0.6-0.1,0.7-0.2c0.1-0.1,0.3-0.3,0.3-0.6c0-0.7,0.3-1.3,0.8-1.6c0.5-0.3,1.1-0.3,1.5,0l0.8,0.6
		l-0.1-1c0-0.3,0.1-0.5,0.3-0.7c0.3-0.3,1-0.5,1.6-0.3c0.4,0,1.6,0.2,1.8,1.1l0.3,1.1l0.5-1c0.5-1.1,1.6-1.4,2.4-1.3
		c0.8,0.1,1.3,0.7,1.5,1.6l0.9-0.1c-0.2-1.3-1-2.1-2.2-2.3c-0.2,0-0.4,0-0.6,0c0.3-1.4,1.1-4.7,3.8-5.4c0.5,0.5,0.9,1.2,1.2,2
		c1.3,3.1,0.8,7.2-1.2,9.5l0.7,0.6c2.1-2.6,2.7-7,1.3-10.4c-1-2.4-2.7-3.9-4.9-4.1c-1.8-0.2-3.5,0.6-4.9,2.2
		c-1.3,1.5-2.1,3.5-2.4,5.6c0,0.1,0,0.3,0,0.5c-0.1,0.1-0.2,0.1-0.3,0.2c-0.1,0.1-0.2,0.2-0.2,0.3c-0.2-3,0.8-6.1,2.7-8.2
		c1.5-1.6,3.3-2.5,5.2-2.5h0c2.7,0,5,1.6,6.5,4.5c2,3.8,1.8,8.5-0.3,11.7c-0.8,1.6-3.4,2.3-4.9,2.3c-0.4,0-0.8,0-1.4,0.1
		c-2.1,0.2-6,0.5-6.8-0.9l-0.1-0.2l-0.3-0.6c-0.6,0.7-1.6,1.6-2.5,1.2c-0.3-0.1-0.7-0.5-0.6-0.9l0.1-1l-0.8,0.6
		c-0.9,0.6-1.8,0.5-2.2,0C129.7,126.1,129.8,125.5,130.3,124.9 M136.8,119.6c0.3-2,1-3.8,2.2-5.2c1.2-1.4,2.7-2,4.1-1.9
		c0.8,0.1,1.5,0.4,2.2,0.9c-3,1.2-3.8,5.2-4,6.3c-0.5,0.2-1,0.5-1.3,0.9c-0.5-0.5-1.2-0.9-2.2-1
		C137.6,119.5,137.2,119.6,136.8,119.6"/>
	<path class="st0" d="M77.1,116.1c-0.9,5.3,4.1,7.1,5,7.4c2.2,3,4.5,3.7,6.2,3.7c1.1,0,1.9-0.3,2.2-0.4c0.8,0.2,1.6,0.4,2.4,0.4
		c1,0,2-0.2,2.9-0.6c0.2,0.3,0.7,0.5,1.5,0.5c0.8,0,1.9-0.1,2.7-0.5c0.3,0.3,0.9,0.5,1.6,0.5c1.5,0,2.9-0.1,4-0.9
		c0.3,0.2,0.6,0.3,1.1,0.3c2.1,0.1,4.4,0.2,6.5-0.1c0.5,0,0.9-0.3,1-0.7c0.1-0.4-0.1-0.9-0.5-1.2c-0.1-0.1-0.2-0.1-0.3-0.2
		c-0.2-0.1-0.3-0.2-0.4-0.3l-0.1-0.1c0-0.1-0.1-0.2-0.2-0.4l-0.1-0.1c-0.6-0.3-1.5-0.4-2.4-0.4c-0.4,0-0.7-0.1-1.1-0.1
		c-0.3-0.9-1.2-1.4-2.1-1.5c-0.1,0-0.2,0-0.3,0c0,0-0.1-0.1-0.1-0.2c0,0-0.1-0.1-0.1-0.1c-0.3-0.4-0.8-0.6-1.3-0.7
		c0.3-3.2-0.8-6.5-2.9-8.9c-1.6-1.8-3.6-2.8-5.7-2.8h-0.2c-1.6,0-3.2,0.6-4.5,1.5c-1.9-1.1-3.7-1.4-5.3-1.1
		c-0.2-0.5-0.7-1.4-1.6-1.8c-0.1-0.4-0.6-1.5-1.7-2.1c-0.2-0.5-0.7-1.1-0.9-1.3c-1.2-1.2-2.4-1.7-3.6-1.5c-1.9,0.4-3,2.6-3.2,3.1
		c-1.2,1.1-0.6,3.5-0.4,4.1C74.1,113,76.4,115.5,77.1,116.1 M105.9,121.8l0.1,0.1c0.1,0.1,0.2,0.3,0.4,0.4c0.2,0.1,0.5,0.2,0.7,0.2
		c0.6,0,1.3,0.4,1.3,1v0.3l0.4,0.1c0.4,0.1,0.9,0.1,1.4,0.2c0.7,0.1,1.5,0.1,2,0.3c0,0,0,0,0,0.1c0,0.1,0.1,0.1,0.1,0.2
		c0.2,0.3,0.4,0.4,0.7,0.6c0.1,0,0.1,0.1,0.2,0.1c0.1,0.1,0.2,0.2,0.2,0.2c0,0-0.1,0-0.2,0.1c-2.1,0.3-4.3,0.2-6.4,0.1
		c-0.4,0-0.6-0.1-0.6-0.2l-0.2-0.7l-0.5,0.4c-0.9,0.8-2.3,0.9-3.8,0.9c-0.4,0-0.9-0.1-0.9-0.3l-0.1-0.6l-0.6,0.4
		c-0.7,0.5-1.6,0.5-2.7,0.6c-0.5,0-0.9-0.1-0.9-0.3l-0.1-0.5l-0.5,0.2c-0.5,0.2-1.1,0.4-1.7,0.5c-2.1-2.2-2.9-6.2-1.9-9.5
		c0.2-0.7,0.7-1.7,1.4-2.6c2.8,0.8,3.6,4.5,3.9,5.8l-0.6,0l0,0.9l4.1-0.2c0.4,0,0.8,0,0.9,0.1c0.4,0.4,0.8,0.6,1.2,0.6
		c0.2,0,0.5,0,0.8,0C104.8,121.3,105.5,121.3,105.9,121.8 M94.5,113.4c0.6-0.4,1.3-0.8,2.2-0.9c1.2-0.2,2.5,0.3,3.6,1.4
		c1.7,1.6,2.7,4,2.7,6.3c-0.1-0.1-0.2-0.1-0.4-0.3c-0.5-0.3-1.1-0.3-1.5-0.3l-2.6,0.1C98.3,118.6,97.5,114.6,94.5,113.4 M96.6,109.8
		L96.6,109.8c1.9,0,3.7,0.8,5.2,2.5c1.9,2.1,2.9,5.2,2.7,8.2c-0.1,0-0.3,0-0.4,0h-0.2c0-2.6-1.1-5.3-2.9-7.1
		c-1.3-1.3-2.9-1.9-4.4-1.7c-2.4,0.3-4.3,2-5.1,4.7c-1,3-0.7,7.1,1.6,9.9c-0.9,0-1.9-0.1-2.8-0.3c-2.1-3.2-2.2-7.9-0.2-11.6
		C91.5,111.4,93.9,109.8,96.6,109.8 M76.3,109.7c-0.2-0.7-0.6-2.8,0.2-3.5l0.1-0.1l0-0.1c0,0,1-2.3,2.6-2.6c0.9-0.2,1.8,0.3,2.8,1.3
		c0.1,0.1,0.1,0.1,0.2,0.2c-1.2-0.1-2.6,0.4-4.3,1.5l0.5,0.7c1.8-1.2,3.3-1.6,4.3-1.2c0.7,0.3,1.1,0.8,1.4,1.3
		c-1.5-0.1-3.3,1.2-5.3,3.7l0.7,0.6c2.4-3.1,4-3.6,4.9-3.4c0.9,0.2,1.4,0.9,1.6,1.4c0,0,0,0,0,0c-2.6,1-3.6,3.8-3.7,3.9l0.8,0.3
		c0,0,0.9-2.5,3.1-3.4c1.5-0.6,3.2-0.3,5.1,0.7c-0.8,0.8-1.5,1.7-2.1,2.8c-2.1,4-1.9,9,0.2,12.4c-1.3,0.3-4,0.3-6.6-3.4l-0.1-0.1
		l-0.2,0c-0.2-0.1-5.5-1.4-4.5-6.7l0-0.3l-0.2-0.2c-0.1-0.1-3-2.4-1.6-5.6l0.1-0.2L76.3,109.7L76.3,109.7z"/>
	<path class="st0" d="M119.5,123.4c0,1.5-0.2,3.1-0.5,4.7l0,0.2l0.1,0.1c0,0.1,1,1.3,2.6,1.8l0.5,0.2l0.1-0.5c0-0.2,0.6-4.2,0.1-8.5
		c5.4-1.7,7.1-7.1,7.6-9.4c0.3-1.4,0.2-1.4,0-1.6l-0.2-0.1l-0.2,0.1c-4.6,1.8-6.8,5.1-7.7,7.7c-0.4-1.4-0.9-2.6-1.5-3.6
		c4.4-0.5,7.9-4.2,7.9-8.8c0-2.6-1.1-4.9-2.9-6.5l2.2-2.7l-4.1,0.5l-1.2-2.1l-2.1,1.3l-1.7-1.4l-0.9,1.7l-3.7-1.4l1,3
		c-2.9,1.7-4.2,4.7-4.2,7.6c0,3.6,2.2,7.6,7,8.6c0.2,0.3,1.2,1.8,1.7,4.9c-1.6-2.4-4.3-5.2-9.1-6l-0.4-0.1l-0.1,0.3
		c-0.1,0.4,0.9,2.8,2.1,4.6C113.2,120.3,115.7,123,119.5,123.4 M122.1,119.9c0.6-2.3,2.3-6.3,7-8.4c-0.4,2-1.8,7.6-7.2,9.1
		L122.1,119.9z M125.5,97.7l-0.8,1c-0.4-0.3-0.8-0.5-1.2-0.8L125.5,97.7z M127.4,105.7c0,3.6-2.4,6.6-5.6,7.6c5.2-7,1.5-13-0.3-15.3
		C124.8,99,127.3,102.1,127.4,105.7 M121.9,96.1l0.8,1.4c-0.7-0.3-1.4-0.5-2.2-0.6L121.9,96.1z M118.7,96.3l0.8,0.7c0,0-0.1,0-0.1,0
		c-0.4,0-0.7,0-1.1,0.1L118.7,96.3L118.7,96.3z M116.9,97.3c-0.5,0.1-0.9,0.3-1.3,0.5l-0.4-1.1L116.9,97.3z M111.4,105.7
		c0-3.3,2-6.8,6.2-7.7c-1.9,2.2-5.6,8.2-0.4,15.3C113.3,112.3,111.4,108.9,111.4,105.7 M119,97.8c0.1,0,0.3,0,0.4,0
		c0.2,0,0.4,0,0.6,0c0.9,0.9,7.3,7.5,0.4,15.8c-0.3,0-0.7,0.1-1,0.1c-0.3,0-0.6,0-0.9-0.1C111.7,105.3,118.1,98.7,119,97.8
		 M118.7,114.5c0.2,0,0.4,0,0.6,0.1c0.9,1.3,1.6,3.1,1.9,5.3l0.1,0.9l0,0.4c0.4,3.4,0.2,6.8,0,8.1c-0.8-0.4-1.3-0.9-1.5-1.2
		c0.3-1.8,0.4-3.5,0.5-5v-0.4l0-1.4v0C120.1,117.6,119.3,115.5,118.7,114.5 M119.5,121.4l0.5,1.1H120c-5.7-0.4-8.4-6.3-9.2-8.3
		C116,115.4,118.5,119.2,119.5,121.4"/>
	<path class="st0" d="M89.4,39.7C89,39.3,89,38.5,89.3,38c0.1-0.2,0.2-0.3,0.3-0.4c0,0,0,0,0.1-0.1c-0.5,0.2-1.3,0-1.5-0.5
		c-0.3-0.7,0.1-1.5,0.8-1.8c-0.6,0.1-1.1,0.4-1.6,0.6c-0.5,0.2-1.2,0.3-1.6-0.1c-0.4-0.3-0.5-1-0.3-1.5s0.6-0.9,1-1.3
		c-0.9,0.2-1.7,1.1-2.5,0.8c-0.9-0.3-0.9-1.5-0.5-2.3c0.5-0.8,1.3-1.3,1.8-2.1c-1.3,0.6-2.7,1.1-4.1,1.4c-0.5,0.1-1.1,0.2-1.5-0.1
		c-0.3-0.2-0.3-0.7,0-0.9l-2,0.7c-0.5,0.2-1,0.3-1.4,0.2c-0.5-0.1-0.8-0.7-0.6-1.1c-0.7,0.4-1.5,0.9-2.3,0.8
		c-0.5-0.1-0.9-0.3-1.1-0.7c-0.3-0.5-0.1-0.8,0.4-1.1c-0.8,0.3-1.6,1.3-1.3,2.2c0.2,0.7,1,1,1.6,0.9c0.7-0.1,1.3-0.4,1.9-0.8
		c-0.3,0.2,0.5,0.9,0.6,1c0.5,0.3,1.2,0.4,1.8,0.3c0.3-0.1,0.6-0.2,1-0.4c0.1-0.1,0.9-0.4,0.9-0.5c0,0.4,0.6,0.6,1.1,0.6
		c0.9,0,1.8,0,2.7-0.1c-0.6,0.6-0.8,1.6-0.4,2.3c0.4,0.7,1.4,1.1,2.2,0.9c-0.7,0.8-0.1,2.1,0.9,2.4c0.8,0.3,1.8-0.2,2.3-0.8
		c-0.1,0.1-0.1,0.2-0.2,0.3c-0.1,0.1-0.1,0.3-0.2,0.4c-0.1,0.3-0.1,0.6-0.1,0.8c0,0.2,0.1,0.5,0.3,0.7c0.1,0.2,0.3,0.3,0.5,0.4
		c0.1,0,0.2,0.1,0.3,0.1c0.3,0,0.5-0.1,0.7-0.3c-0.1,0.3-0.3,0.5-0.4,0.8c-0.1,0.3-0.2,0.6-0.3,0.8c-0.1,0.7,0.5,1.3,1.1,1.4
		c0.4,0.1,0.8,0,1.1-0.2c0.8-0.4,1.2-1.2,1.5-2C91.4,40.4,90,40.5,89.4,39.7"/>
	<path class="st0" d="M56.1,30.6c0.6-0.1,1-0.5,1.5-0.8c0.1-0.1,0.3-0.2,0.4-0.1c0.1,0.1,0.1,0.3,0.1,0.4c0.1,0.7,0.7,1.2,1.4,1.2
		c0.7,0.1,1.3-0.3,1.9-0.6c0,0.1,0,0.3-0.1,0.4c0.3,0.4,0.8,0.7,1.3,0.7c0.5,0,1-0.1,1.5-0.3c0.6-0.2,1.3-0.4,1.7-1
		c-0.3,0.3-0.7,0.7-1.2,0.6c-0.5-0.1-0.8-0.7-0.7-1.2c0.1-0.5,0.4-0.9,0.7-1.3c-0.9,0.5-1.8,0.9-2.8,1.2c-0.4,0.1-0.8,0.2-1.2,0.1
		c-0.4-0.1-0.8-0.5-0.7-0.9c0-0.2,0.2-0.4,0.3-0.6c0.2-0.3,0.5-0.5,0.9-0.7c-0.8,0.3-1.6,0.7-2.4,1c-0.6,0.3-1.2,0.5-1.9,0.4
		s-1.3-0.5-1.4-1.1c0-0.3,0-0.5,0.1-0.7c-0.1,0.1-0.2,0.1-0.3,0.2c-0.4,0.3-0.8,0.7-1,1.1c-0.2,0.5-0.2,1.1,0.1,1.4
		C54.9,30.6,55.6,30.7,56.1,30.6"/>
	<path class="st0" d="M96.4,16.5c0,0-0.2,0.1-0.2,0.1c-0.1,0-0.1,0.1-0.2,0.1c-0.3,0.1-0.6,0.2-0.9,0.2c-0.5,0-1-0.3-1.1-0.8
		c-0.1-0.3,0-0.7-0.1-0.9S93.3,14.9,93,15c-0.7,0.2-2.2,1.2-2.8,0.3c-0.1-0.1-0.1-0.3-0.1-0.5c0-0.1,0.1-0.2,0.1-0.3
		c-0.6,0.6-1.3,0.7-2,1.1c-0.7,0.4-1.4,0.7-2.2,1c-0.4,0.2-1.1,0.3-1.4-0.1c-0.4-0.5,0-1.4,0.4-1.8c0.4-0.5,0.4-0.5,0.9-0.8
		c-1.9,0.8-3.6,1.2-5.6,1.9c-2.1,0.7-4.1,1.6-5.7,3.1c-0.3,0.2-0.5,0.5-0.6,0.8c-0.1,0.3,0.1,0.7,0.4,0.8c-2.3,0.7-4.3,2.3-5.6,4.3
		c-0.3,0.4-0.5,1-0.1,1.4c0.2,0.2,0.4,0.2,0.7,0.2c0.7,0,1.3-0.2,1.9-0.6C71,25.5,70.9,25,71,24.5c0.1-0.4,0.5-0.8,0.8-1.1
		c1.3-1.2,2.9-2.2,4.5-2.9c-0.3,0.1-0.6-0.2-0.6-0.4c0-0.3,0.2-0.5,0.3-0.7c0.2-0.2,0.3-0.4,0.5-0.6c0.8-0.8,1.7-1.4,2.7-1.9
		c1-0.5,2.1-0.9,3.2-1.3c0.1,0,0.3-0.1,0.5-0.1c0.1,0,0.4-0.1,0.4-0.1c-0.3,1-0.4,2.6,1.1,2.6c1.5,0,3-0.7,4-1.8
		c-0.3,0.5-0.6,1.1-0.3,1.6c0.3,0.4,0.9,0.4,1.4,0.3c1.2-0.3,2.3-0.9,3.2-1.7c-0.4,0.5-0.7,1.2-0.3,1.6c0.1,0.1,0.1,0.1,0.2,0.1
		c0.3,0.1,0.6,0.1,0.9,0.1c0.4-0.1,0.8-0.2,1.2-0.4c0.5-0.2,1-0.5,1.4-0.9C96.3,16.8,96.5,16.6,96.4,16.5"/>
	<path class="st0" d="M65.5,40.9c-1.8,0.9-3.7,1.6-5.7,1.9c-0.6,0.1-1.4,0-1.5-0.6c0-0.3,0.1-0.5,0.3-0.7c0.7-1,1.6-1.8,2.6-2.4
		c-1.7,0.8-3.6,1.4-5.5,1.7c-0.8,0.1-1.8-0.1-1.9-0.8c0-0.3,0.2-0.6,0.4-0.9c0.7-0.9,1.6-1.7,2.6-2.3c-1.6,1-3.3,1.8-5.1,2.4
		c-0.8,0.2-1.6,0.4-2.3-0.1c-0.4-0.3-0.5-1-0.2-1.4c-1.1,0.6-2.4,0.9-3.6,0.9c-0.2,0-0.5,0-0.6-0.2c-0.6-0.5,0.1-1.5,0.6-2.1
		c-0.7,0.7-1.5,1.4-2,2.3c-0.3,0.5-0.5,1.2,0,1.5c0.2,0.1,0.4,0.1,0.6,0.1c0.4,0,0.9-0.1,1.3-0.1c0.3,0,0.5-0.1,0.8-0.2
		c0.3-0.1,0.6-0.2,0.9-0.3c0.1-0.1,0.8-0.2,0.8-0.4c-0.4,1,0.7,2.2,1.9,2.2c1.1,0,2.2-0.6,3.1-1.3c-0.4,0.5,0,1.3,0.6,1.6
		c0.6,0.3,1.3,0.2,1.9,0.1c1.1-0.2,2.2-0.6,3.3-1c-0.4,1-1.9,1.8-1.4,2.8c0.2,0.4,0.7,0.6,1.2,0.6c1.8,0.3,3.7-0.1,5.1-1.1
		c0.3-0.2,0.7-0.5,1.1-0.5c0.3,0,0.6,0.2,0.9,0.3c0.6,0.3,1.3,0.2,1.9-0.1C66.3,43.1,65.3,42,65.5,40.9"/>
	<path class="st0" d="M41.8,48.2c-0.1-0.3,0-0.6,0.1-0.8c0-0.1,0.1-0.2,0.1-0.2c-0.1,0-0.2,0.1-0.3,0.2c-0.1,0.1-0.2,0.1-0.3,0.2
		c-0.2,0.1-0.4,0.2-0.6,0.3c-0.4,0.2-0.9,0.3-1.4,0.4c-0.3,0-0.7,0-1,0c-0.2,0-0.3,0-0.5-0.1c-0.1,0-0.3,0-0.4-0.1
		c-0.1-0.1-0.2-0.3-0.2-0.5c0-0.2,0-0.4,0-0.5c0-0.1,0-0.1,0.1-0.2c0.1-0.1,0.1-0.3,0.2-0.4c0.1-0.1,0.2-0.3,0.3-0.3
		c-1.1,0.7-2.2,1.2-3.4,1.4c-0.2,0-0.4,0.1-0.6,0c-0.4-0.2-0.2-0.8,0-1.1c1-1.6,2.3-3,3.7-4.2c-1.5,1-2.9,2.2-4.1,3.5
		c-0.5,0.5-1,1.2-0.8,1.9c0.2,0.6,0.9,0.9,1.6,0.9c0.6,0,1.2-0.4,1.8-0.7c0.1-0.1,0.3-0.2,0.4-0.3c0.1-0.1,0.3-0.1,0.4-0.2
		c-0.2,0.5-0.3,0.9-0.2,1.4c0,0.2,0.1,0.4,0.2,0.6c0.1,0.2,0.3,0.3,0.5,0.3c0.2,0,0.5,0,0.7-0.1c0.3-0.1,0.6-0.2,0.9-0.3
		c0.5-0.2,0.9-0.4,1.4-0.7c0.3-0.2,0.6-0.4,0.9-0.7c0,0,0.1-0.1,0.2-0.1c0,0.1,0,0.2-0.1,0.3c0,0.1-0.1,0.2-0.1,0.3
		c0,0.2,0,0.4,0.1,0.7c0.1,0.3,0.3,0.5,0.5,0.6c0.1,0.1,0.2,0.1,0.3,0.1c0.1,0,0.3,0,0.4,0c0.5-0.1,0.9-0.3,1.3-0.6
		c1.1-0.8,2.1-1.9,2.7-3.2c-1.3,0.9-2.6,1.7-4.1,2.3C42.5,48.3,41.9,48.5,41.8,48.2"/>
	<path class="st0" d="M166.5,28.3c0.4,0.3,0.7,0.6,0.4,1.1c-0.3,0.4-0.6,0.7-1.1,0.7c-0.8,0.1-1.6-0.3-2.3-0.8
		c0.3,0.4-0.1,1-0.6,1.1s-1,0-1.4-0.2l-2-0.7c0.2,0.2,0.3,0.7,0,0.9c-0.4,0.3-1,0.3-1.5,0.1c-1.4-0.3-2.8-0.8-4.1-1.4
		c0.5,0.7,1.3,1.3,1.8,2.1c0.5,0.8,0.4,2-0.5,2.3c-0.9,0.3-1.6-0.6-2.5-0.8c0.4,0.4,0.8,0.8,1,1.3c0.2,0.5,0.1,1.2-0.3,1.5
		c-0.4,0.3-1.1,0.3-1.6,0.1c-0.5-0.2-1-0.5-1.6-0.6c0.7,0.3,1.1,1.1,0.8,1.8c-0.3,0.5-1,0.8-1.5,0.5c0,0,0,0,0.1,0.1
		c0.1,0.1,0.2,0.3,0.3,0.4c0.3,0.5,0.2,1.3-0.1,1.7c-0.6,0.7-1.9,0.7-2.5-0.1c0.3,0.8,0.8,1.6,1.5,2c0.3,0.2,0.7,0.3,1.1,0.2
		c0.6-0.1,1.2-0.7,1.1-1.4c0-0.3-0.1-0.6-0.3-0.8c-0.1-0.3-0.3-0.5-0.4-0.8c0.2,0.2,0.4,0.3,0.7,0.3c0.1,0,0.2,0,0.3-0.1
		c0.2-0.1,0.4-0.3,0.5-0.4c0.1-0.2,0.2-0.4,0.3-0.7c0-0.3,0-0.6-0.1-0.8c0-0.1-0.1-0.3-0.2-0.4c-0.1-0.1-0.1-0.3-0.2-0.3
		c0.6,0.7,1.5,1.1,2.3,0.8c1-0.3,1.5-1.7,0.9-2.4c0.8,0.2,1.8-0.2,2.2-0.9c0.4-0.7,0.2-1.7-0.4-2.3c0.9,0,1.8,0,2.7,0.1
		c0.4,0,1-0.1,1.1-0.6c0,0.1,0.8,0.5,0.9,0.5c0.3,0.2,0.6,0.3,1,0.4c0.6,0.1,1.3,0,1.8-0.3c0.1-0.1,0.8-0.9,0.6-1
		c0.6,0.3,1.2,0.7,1.9,0.8c0.7,0.1,1.5-0.3,1.6-0.9C168.2,29.6,167.4,28.6,166.5,28.3"/>
	<path class="st0" d="M174.2,31.1c-0.5,0.1-0.9-0.3-1.2-0.6c0.4,0.6,1,0.8,1.7,1c0.5,0.2,1,0.3,1.5,0.3c0.5,0,1.1-0.2,1.4-0.7
		c0-0.1,0-0.3-0.1-0.4c0.6,0.4,1.2,0.7,1.9,0.6c0.7-0.1,1.4-0.6,1.4-1.2c0-0.1,0-0.3,0.1-0.4c0.1-0.1,0.3,0,0.4,0.1
		c0.5,0.3,1,0.6,1.5,0.8c0.5,0.1,1.2,0.1,1.6-0.4c0.3-0.4,0.3-1,0.1-1.4c-0.2-0.5-0.6-0.8-1-1.1c-0.1-0.1-0.2-0.1-0.3-0.2
		c0.1,0.2,0.2,0.5,0.1,0.7c-0.1,0.6-0.8,1.1-1.4,1.1s-1.3-0.2-1.9-0.4c-0.8-0.3-1.6-0.6-2.4-1c0.3,0.2,0.6,0.4,0.9,0.7
		c0.2,0.2,0.3,0.4,0.3,0.6c0,0.4-0.3,0.8-0.7,0.9c-0.4,0.1-0.8,0-1.2-0.1c-1-0.3-1.9-0.7-2.8-1.2c0.3,0.4,0.7,0.8,0.7,1.3
		C175,30.4,174.7,31,174.2,31.1"/>
	<path class="st0" d="M142.8,16.8c0.4,0.4,0.9,0.7,1.4,0.9c0.4,0.2,0.8,0.3,1.2,0.4c0.3,0.1,0.6,0.1,0.9-0.1c0.1,0,0.1-0.1,0.2-0.1
		c0.4-0.4,0.1-1.2-0.3-1.6c0.9,0.8,2,1.4,3.2,1.7c0.5,0.1,1.1,0.1,1.5-0.3c0.3-0.4,0-1.1-0.3-1.6c1,1.2,2.5,1.8,4,1.8
		c1.5,0,1.4-1.5,1.1-2.6c0,0,0.4,0.1,0.4,0.1c0.1,0,0.3,0.1,0.5,0.1c1.1,0.4,2.2,0.8,3.2,1.3c1,0.5,1.9,1.1,2.7,1.9
		c0.2,0.2,0.4,0.4,0.5,0.6c0.2,0.2,0.3,0.5,0.3,0.7c0,0.3-0.3,0.6-0.6,0.4c1.7,0.7,3.2,1.7,4.5,2.9c0.3,0.3,0.7,0.7,0.8,1.1
		c0.1,0.4,0.1,1-0.3,1.2c0.5,0.4,1.2,0.6,1.9,0.6c0.2,0,0.5,0,0.7-0.2c0.4-0.3,0.2-0.9-0.1-1.4c-1.3-2-3.3-3.6-5.6-4.3
		c0.3-0.1,0.5-0.5,0.4-0.8c-0.1-0.3-0.3-0.6-0.6-0.8c-1.6-1.5-3.6-2.4-5.7-3.1c-2-0.7-4.2-1.3-6.2-2.2c0.5,0.3,1,0.7,1.4,1.1
		c0.4,0.4,0.8,1.3,0.4,1.8c-0.3,0.4-1,0.3-1.4,0.1c-0.8-0.3-1.5-0.7-2.2-1c-0.7-0.4-1.4-0.6-2-1.1c0,0.1,0.1,0.2,0.1,0.3
		c0,0.2,0,0.3-0.1,0.5c-0.6,0.9-2.1-0.1-2.8-0.3c-0.3-0.1-0.7-0.1-0.9,0.2c-0.2,0.3-0.1,0.6-0.1,0.9c-0.1,0.5-0.6,0.8-1.1,0.8
		c-0.3,0-0.6-0.1-0.9-0.2c-0.1,0-0.1-0.1-0.2-0.1c0,0-0.2-0.1-0.2-0.1C142.5,16.5,142.7,16.8,142.8,16.8"/>
	<path class="st0" d="M173.5,43.2c0.3-0.1,0.6-0.3,0.9-0.3c0.4,0,0.7,0.3,1.1,0.5c1.5,1,3.4,1.4,5.1,1.1c0.5-0.1,0.9-0.3,1.2-0.6
		c0.5-1-1-1.8-1.4-2.8c1,0.4,2.1,0.8,3.3,1c0.6,0.1,1.3,0.2,1.9-0.1c0.6-0.3,1-1.1,0.6-1.6c0.9,0.6,2,1.3,3.1,1.3
		c1.1,0,2.3-1.2,1.9-2.2c0.1,0.2,0.7,0.3,0.8,0.4c0.3,0.1,0.6,0.2,0.9,0.3c0.3,0.1,0.5,0.1,0.8,0.2c0.4,0.1,0.9,0.1,1.3,0.1
		c0.2,0,0.4,0,0.6-0.1c0.5-0.3,0.3-1,0-1.5c-0.5-0.9-1.3-1.6-2-2.3c0.5,0.6,1.2,1.6,0.6,2.1c-0.2,0.2-0.4,0.2-0.6,0.2
		c-1.3,0.1-2.5-0.3-3.6-0.9c0.3,0.4,0.2,1.1-0.2,1.4c-0.6,0.4-1.5,0.3-2.3,0.1c-1.8-0.5-3.6-1.3-5.1-2.4c1,0.6,1.9,1.4,2.6,2.3
		c0.2,0.3,0.4,0.5,0.4,0.9c0,0.8-1.1,0.9-1.9,0.8c-1.9-0.3-3.8-0.9-5.5-1.7c1.1,0.6,2,1.4,2.6,2.4c0.1,0.2,0.3,0.5,0.3,0.7
		c-0.1,0.6-0.9,0.7-1.5,0.6c-2-0.4-3.9-1-5.7-1.9c0.2,1.1-0.8,2.2-1.9,2.1C172.2,43.4,172.9,43.4,173.5,43.2"/>
	<path class="st0" d="M195,49.2c0.4,0.3,0.8,0.5,1.3,0.6c0.1,0,0.3,0,0.4,0c0.1,0,0.2,0,0.3-0.1c0.2-0.1,0.4-0.3,0.5-0.6
		c0.1-0.2,0.1-0.4,0.1-0.7c0-0.1,0-0.2-0.1-0.3c0-0.1,0-0.2,0-0.3c0.1,0,0.1,0.1,0.2,0.1c0.3,0.3,0.6,0.5,0.9,0.7
		c0.4,0.3,0.9,0.5,1.4,0.7c0.3,0.1,0.6,0.2,1,0.3c0.2,0.1,0.5,0.1,0.7,0.1c0.2,0,0.4-0.2,0.5-0.3c0.1-0.2,0.2-0.4,0.2-0.6
		c0-0.5-0.1-0.9-0.2-1.4c0.1,0.1,0.3,0.1,0.4,0.2c0.1,0.1,0.3,0.2,0.5,0.3c0.6,0.3,1.2,0.6,1.8,0.7s1.4-0.3,1.6-0.9
		c0.2-0.7-0.3-1.4-0.8-1.9c-1.2-1.3-2.6-2.5-4-3.5c1.4,1.3,2.6,2.7,3.7,4.2c0.2,0.3,0.4,0.9,0,1.1c-0.2,0.1-0.4,0.1-0.6,0
		c-1.2-0.3-2.4-0.8-3.5-1.4c0.1,0.1,0.2,0.2,0.3,0.3c0.1,0.1,0.1,0.3,0.2,0.4c0,0,0,0.1,0,0.1c0,0.2,0.1,0.4,0,0.5
		c0,0.2-0.1,0.3-0.2,0.5c-0.1,0.1-0.2,0.1-0.4,0.1c-0.2,0-0.3,0.1-0.5,0.1c-0.3,0-0.6,0-1,0c-0.5-0.1-1-0.2-1.4-0.4
		c-0.2-0.1-0.4-0.2-0.6-0.3c-0.1-0.1-0.2-0.1-0.3-0.2c-0.1-0.1-0.2-0.2-0.3-0.2c0,0.1,0.1,0.2,0.1,0.2c0.1,0.2,0.2,0.5,0.1,0.8
		c-0.1,0.3-0.6,0.1-0.8,0c-1.5-0.6-2.8-1.3-4.1-2.3C192.9,47.2,193.9,48.3,195,49.2"/>
	<path class="st0" d="M116.6,77.3c-3.5-0.5-4.6-4.1-4.6-4.1l-0.9,1.4C113.5,77.8,116.6,77.3,116.6,77.3"/>
	<path class="st0" d="M109.5,22.1c-0.6,0-1.1,0.5-1.1,1.1s0.5,1.1,1.1,1.1s1.1-0.5,1.1-1.1S110.1,22.1,109.5,22.1 M109.5,23.7
		c-0.3,0-0.5-0.2-0.5-0.5s0.2-0.5,0.5-0.5s0.5,0.2,0.5,0.5S109.8,23.7,109.5,23.7"/>
	<path class="st0" d="M234.6,88.6c-0.4-0.5-1-0.8-1.6-0.8L218.5,91l-1.6,7.8l-3.8,2.5c-0.1-6.7-0.4-13.8-0.9-21l7.7,1.7l8.6-11.9
		c0.4-0.6,0.4-1.4,0-2c-0.4-0.5-1-0.8-1.6-0.8l-14.6,3.2l-1.6,7.8L176,101.1c-0.1-3-0.4-6-0.6-9.1c0-0.1,0-0.2,0-0.3
		c0.9,0.1,1.6,0.2,2.4,0.2c1.9,0,3.6-0.4,5-1.3c4.9-3.1,6.4-12.5,6.6-14.4l0-0.2l-0.5-0.3c-0.9-0.6-3.1-2.4-3.7-4.9
		c0.8,0.1,1.5,0.3,2.3,0.5c0.7,0.2,1.4,0.6,2.1,0.9c2,0.9,4.4,2.1,7.2,2.1c0.9,0,1.9-0.1,3-0.4c4.6-1.5,6.4-3.8,6.5-3.9l0.5-0.6
		l-5.7-0.5l1.8-5.3l-1.1,0.8c0,0-2.7,2-3.9,2.4l-0.3,0.1c-1.1,0.3-2.3,0.7-5.8-0.7c-2.1-0.9-4-1.2-5.6-1c-2,0.3-3.5,1.5-4.7,2.6
		c-1.2,1.1-2.8,2.4-3.3,4.1l0,0.2c-0.1,0.3-0.1,0.6-0.2,0.8l0,0.1l0,0c0,0.5,0,1.1,0,1.6c0.1,0.8,0.3,1.5,0.6,2.3
		c0.2,0.6,0.5,1.1,0.9,1.6c0,0,0,0,0,0c-3.5,0-8.3-0.6-14.9-2.7c-4.7-1.5-9.4-2.2-13.9-2.2c-6.4,0-11.8,1.5-16.2,3.4
		c0-0.1,0-0.3-0.1-0.4c-0.1-0.3-0.3-0.7-0.5-1c-0.5-0.8-1-1.7-1.2-2.7c-0.2-1.1,0-2.2,0.2-3.3c0.2-1.6,0.1-3.1-0.3-4.5
		c-0.3-0.9-0.6-1.6-1.2-2.2c-0.2-0.3-0.5-0.5-0.7-0.8c-0.1-0.1-0.2-0.3-0.3-0.4c0.5-0.9,0.8-1.8,0.8-2.7c0-0.1,0.1-0.2,0.2-0.3
		l0.1-0.1c0.1-0.1,0.2-0.2,0.3-0.4c0.1-0.2,0.3-0.4,0.4-0.6c0.3-0.5,0.4-1.1,0.4-1.8v-1c0.2-0.1,0.3-0.2,0.4-0.3
		c0.5,1.1,1.4,1.8,2.5,1.8c1.1,0,2.4-0.6,3.3-1.5c0.2,0.3,0.5,0.5,0.9,0.7c1,0.4,1.9-0.3,2.2-0.4c0.8-0.6,1.6-1.2,2.2-2
		c0.3,0.1,0.6,0.1,0.9,0.1c1.1-0.2,1.8-1.3,2.1-2.1l0.1-0.2c0.2-0.4,0.2-0.5,0.3-0.5c0.8-0.4,1.2-1.2,1.5-1.9c0.1,0,0.2,0,0.3-0.1
		c0.4-0.2,0.6-0.1,0.9,0.1c0.5,0.4,1.2,0.4,1.7,0.2c0.5,0.5,1,0.7,1.7,0.6c0.4-0.1,0.8-0.3,1.1-0.5c0.1,0.1,0.3,0.2,0.5,0.3
		c0.4,0.1,0.6,0.4,1,0.9l0.1,0.2c0.8,1.1,1.7,1.3,2.3,1.3c0.5,0,1.1-0.2,1.8-0.8c0.9,0.6,1.7,0.6,2.2,0.5c0.5-0.1,1.3-0.6,1.8-1.7
		c0.5-1,0.7-1.9,0.8-2.8c0.5,0,1-0.3,1.4-0.7c0.1,0.1,0.3,0.2,0.4,0.3c0.2,0.2,0.4,0.3,0.5,0.4c1,0.7,2.1,1.3,3.2,1.8
		c0.4,0.2,0.8,0.3,1.3,0.4c0.4,0,0.8,0,1-0.1c0.1,0.1,0.3,0.2,0.5,0.3c3,2.1,4.9,3.2,6.3,2.4c0.2-0.1,0.4-0.3,0.5-0.5
		c1.8,1.3,3.6,2.5,5.8,3.3c0.5,0.2,0.9,0.2,1.4,0c0.4-0.1,0.6-0.3,0.8-0.5c0.5,0.3,0.9,0.7,1.4,1c1.6,1.2,3.3,2.4,5.2,3.1
		c1.1,0.5,1.9,0.3,2.3,0c0.6-0.4,0.9-1,1-1.6c1,0.9,2.1,1.8,3.8,2.3l0.1,0c0.9,0.2,1.5-0.1,1.8-0.4c1.2,1,2.5,2,4,2.7
		c0.7,0.3,1.5,0.3,2.2-0.2c0.3-0.2,0.5-0.5,0.6-0.8c1.2,0.6,2.3,1.1,3.4,1.9c0.5,0.3,1.8,1.3,3.1,0.4c0.3-0.2,0.6-0.5,0.7-0.9
		c0.6,0.5,1.3,1.1,2,1.5c0.6,0.5,2.5,1.7,3.8,1c0.3-0.2,0.7-0.5,0.9-1.2c0.4,0.3,0.8,0.5,1.3,0.8c0.7,0.4,1.3,0.8,2,1.3
		c1.5,1,2.9,2,4.8,2.4l0.1,0c0.1,0,0.2,0,0.3,0c0.4,0,0.8-0.1,1.1-0.4c0.4-0.4,0.6-0.9,0.5-1.5c-0.3-2.6-1.9-4.4-3.4-6
		c-3.8-4.2-8.3-8-12.7-11.7c-1.6-1.4-3.3-2.8-5-4.2c-11.1-9.7-22.5-18.4-35.1-26.8c-11-7.4-22.1-11.4-33.1-11.9
		c-4.7-0.2-8.5,0.4-11.4,1.8c-6.8,3.5-4.6,10.9-3,16.2l0.1,0.4c0.9,2.9,1.1,4.9,0.3,6.1c-0.3,0.5-0.7,0.8-1.3,1c0,0,0-0.1,0-0.1
		L130,30c-2.8-3.2-7.2-3-8.5-2.8c-0.5-0.3-1-0.7-1.3-0.9c0.1-2-0.3-3.9-1.3-5.4c-0.3-0.5-0.7-0.9-1.1-1.4c0,0,0,0,0,0
		c0,0,0-0.1,0-0.1c-0.1-0.7-0.4-1.4-0.9-1.9c-0.6-0.6-1.5-0.9-2.5-0.9c-0.9,0-1.6,0.3-2.2,0.5l-0.2,0.1c-0.5,0.2-1,0.4-1.3,0.3
		c-0.1,0-0.2-0.1-0.3-0.1c0.6-3.4,0-6.6-1.8-8.8c-3.2-3.8-9.4-4.3-14.1-4c-11,0.5-22.1,4.5-33.1,11.9c-12.5,8.4-24,17.2-35.1,26.8
		c-1.6,1.4-3.3,2.8-5,4.2c-4.4,3.7-8.9,7.4-12.7,11.7c-1.4,1.6-3.1,3.4-3.3,5.9c-0.1,1.1,0.5,1.5,0.8,1.7c0.3,0.2,0.6,0.2,0.9,0.2
		c0.9,0,2-0.5,3.4-1.4c0.8-0.6,1.6-1,2.4-1.5c0.7-0.4,1.3-0.8,2-1.2c0.3-0.2,0.6-0.1,0.8,0.2c0.2,0.4,0.5,0.6,0.7,0.7
		c1.2,0.6,2.8-0.2,5.2-2.1c0.2-0.2,0.6-0.2,0.8,0.1c0.1,0.2,0.3,0.3,0.5,0.4c1.3,0.8,2.6-0.1,3.1-0.5c0.9-0.7,1.9-1.2,2.9-1.6
		c0.2-0.1,0.5,0,0.7,0.2c0.1,0.1,0.2,0.3,0.4,0.4c0.6,0.5,1.4,0.6,2.1,0.2c1.4-0.6,2.5-1.5,3.6-2.4c0.1-0.1,0.3-0.2,0.4-0.3
		c0.4,0.3,1,0.6,1.8,0.4l0.1,0c1.3-0.4,2.3-1,3.1-1.7c0.3-0.2,0.7-0.1,0.9,0.2c0.2,0.4,0.4,0.7,0.8,0.9c0.4,0.3,1.2,0.5,2.3,0
		c2-0.8,3.6-2,5.3-3.2c0.5-0.3,1-0.7,1.4-1c0.2,0.2,0.4,0.4,0.8,0.5c0.4,0.1,0.9,0.1,1.4,0c2-0.7,3.7-1.8,5.4-3
		c0.2-0.2,0.5-0.1,0.7,0.1c0.2,0.2,0.5,0.3,0.8,0.4c1.3,0.3,3.1-0.7,5.7-2.5c0.2-0.2,0.4-0.3,0.6-0.4c0.2,0.1,0.6,0.2,1.1,0.1l0.2,0
		c1.4-0.4,2.5-1.1,3.7-1.8l0.6-0.4c0.1-0.1,0.3-0.2,0.5-0.4c0.1-0.1,0.2-0.2,0.4-0.3c0.3,0.3,0.7,0.5,1.1,0.6
		c0.2,0.1,0.4,0.3,0.4,0.5c0.2,1.6,0.9,3.4,2.3,4c0.4,0.2,1.2,0.4,2.2-0.2c0.2-0.1,0.4-0.1,0.6,0c0.6,0.4,1.1,0.5,1.5,0.6
		c0.6,0,1.4-0.2,2.3-1.3l0.1-0.2c0.4-0.5,0.6-0.8,1-0.9c0.2-0.1,0.4-0.2,0.5-0.3c0.3,0.3,0.7,0.5,1.1,0.5c0.6,0.1,1.2-0.1,1.7-0.6
		c0.5,0.3,1.2,0.3,1.7-0.2c0.3-0.3,0.5-0.3,0.9-0.1c0.1,0.1,0.2,0.1,0.3,0.1c0.2,0.7,0.6,1.5,1.4,1.9c0.1,0.1,0.2,0.1,0.3,0.5
		l0.1,0.2c0.4,0.8,1,1.9,2.1,2.1c0.3,0,0.6,0,1.1-0.2c0,0,0,0,0,0.1l0.1,0.6l0.5-0.3c0.9-0.5,1.6-1.5,2.2-2.7
		c0.3,1.3,0.8,2.6,1.5,3.6c-2.4,2-3.6,5.2-3.1,8.1l0.1,0.6l0.6-0.3c0.9-0.5,1.7-1.5,2.3-2.7c0.3,1.7,0.9,3.3,1.9,4.5
		c-2.4,2.5-2.9,5.4-2.1,8.2l0.2,0.6l0.5-0.4c0.8-0.6,1.5-1.6,2-2.8c0.1,0.8,0.4,1.6,0.7,2.4c0.7,1.6,0.6,1.9,1.9,2.9
		c-0.2,0.3-0.4,0.7-0.6,1.1c-4.2-1.8-9.3-3.1-15.4-3.1c-4.5,0-9.1,0.7-13.9,2.2c-6.5,2-11.3,2.7-14.9,2.7c0,0,0,0,0,0
		c0.3-0.5,0.6-1.1,0.9-1.6c0.3-0.7,0.5-1.5,0.6-2.3c0.1-0.5,0.1-1.1,0-1.6l0,0l0-0.1c0-0.3-0.1-0.6-0.2-0.8l0-0.2
		c-0.5-1.7-2-3-3.3-4.1c-1.3-1.1-2.7-2.4-4.7-2.6c-1.6-0.2-3.5,0.1-5.6,1c-3.5,1.4-4.7,1-5.8,0.7l-0.3-0.1c-1.2-0.5-3.9-2.4-3.9-2.4
		l-1.1-0.8l1.8,5.3l-5.7,0.5l0.5,0.6c0.1,0.1,1.9,2.4,6.5,3.9c1.1,0.3,2,0.4,3,0.4c2.9,0,5.2-1.1,7.2-2.1c0.8-0.4,1.4-0.7,2.1-0.9
		c0.8-0.3,1.5-0.4,2.3-0.5c-0.6,2.5-2.8,4.2-3.7,4.9L50.6,76l0,0.2c0.3,1.9,1.8,11.2,6.6,14.4c1.4,0.9,3.1,1.3,5,1.3
		c0.7,0,1.5-0.1,2.3-0.2c-0.3,3.1-0.5,6.3-0.7,9.4L29.1,78.3l-1.6-7.8c0,0-14.6-3.2-14.6-3.1c-0.6-0.1-1.2,0.2-1.6,0.8
		c-0.4,0.6-0.4,1.4,0,2L20,82l7.7-1.7c-0.6,7.3-0.9,14.3-0.9,21L23,98.8L21.4,91c0,0-14.6-3.2-14.6-3.1c-0.6-0.1-1.2,0.2-1.6,0.8
		c-0.4,0.6-0.4,1.4,0.1,1.9l8.6,11.9l7.5-1.6C16,141,22,168.3,28,184.1c6.2,16.3,13.4,24,14.6,25.2c2,2.3,14.9,16.3,34.8,16.3
		c8.6,0,18.6-2.6,29.4-10c-3.4,11.2-12.1,24.3-12.3,24.5l-0.5,0.7l0.9,0c3.9-0.1,7.1,0.2,9.5,0.7l-1.5,6c-0.2,0.6-0.2,1-0.2,1
		c0,0.3,0.1,1,0.7,1.5c0.9,0.8,2.6,1,5,0.6c1.1-0.2,1.9-0.2,2.6-0.1l0.2,6.4c0,0.1,0,0.2,0,0.4c0,0.1,0.1,0.3,0.2,0.5
		c0.8,1.2,3.6,1.8,8.5,1.8s7.7-0.6,8.5-1.8c0.2-0.3,0.2-0.6,0.2-0.9l0.2-6.4c0.7-0.1,1.5,0,2.6,0.1c2.4,0.4,4,0.2,5-0.6
		c0.6-0.5,0.7-1.2,0.7-1.5c0-0.1,0-0.3,0-0.4c0-0.4-0.2-0.8-0.3-1.1c-0.1-0.6-0.3-1.2-0.4-1.8c-0.2-0.7-0.4-1.4-0.5-2.2l-0.3-1.4
		l0-0.1c2.4-0.5,5.5-0.8,9.5-0.7l0.9,0l-0.5-0.7c-0.1-0.1-8.9-13.3-12.3-24.5c10.9,7.4,20.9,10.1,29.5,10.1
		c20,0,32.9-14.1,34.9-16.4c0.3-0.3,7.8-7.7,14.4-25.1c6-15.8,12-43.1,6.6-83.2l7.5,1.6l8.6-11.9C235,90,235,89.3,234.6,88.6
		 M214.4,72.5l11.2-2.4l-6.7,9.3l-5.6-1.2L214.4,72.5L214.4,72.5z M21,79.4l-6.7-9.3l11.2,2.4l1.1,5.6L21,79.4L21,79.4z M14.9,99.9
		l-6.7-9.3L19.4,93l1.1,5.6L14.9,99.9L14.9,99.9z M193.9,92.2l16-10.5c0.5,7.3,0.8,14.4,0.8,21.1l-18.2,11.9
		C193.3,107.9,193.8,100.5,193.9,92.2 M176.1,103.8l7.6-5c-0.3,8.4-1,15.9-2.1,23.1l-5.9,3.9C176.2,118.9,176.4,111.6,176.1,103.8
		 M175.4,128.8l9.4-6.2c-0.5,13-2.3,26-6.3,38.3c-2,6.3-4.7,12.5-8,18.4c-3.2,5.8-7,11.3-11.3,16.4c-2.2,2.7-4.6,5.2-7,7.7
		c-1.8-1.7-3.1-3.2-3.9-4.2C161,183.6,172.3,160.4,175.4,128.8 M134,198.7c-0.3-0.4-0.7-0.5-1-0.7l-0.2,0c-0.2-0.1-0.3-0.2-0.3-0.3
		c0,0,0.1-0.1,0.2-0.2c0.1-0.1,0.2-0.2,0.4-0.3c0.5-0.6,0.5-1.4,0-2.1c-0.7-0.9-2.1-1.4-3-1.1c-0.4,0.1-0.8,0.3-1.2,0.5
		c-0.2,0.1-0.4,0.2-0.6,0.3c-0.3,0.1-0.9,0.3-1.4,0c-0.1-0.1-0.3-0.3-0.4-0.4c-0.2-0.2-0.4-0.5-0.6-0.6c-0.4-0.3-0.9-0.3-1.3-0.3
		l-5.1-0.3c-0.7-0.1-1.1,0.1-1.4,0.7c-0.1,0.1-0.3,0.1-0.7,0.1c-0.3,0-0.6,0-0.9,0.1c-0.5,0.2-0.9,0.6-1.1,1
		c-0.2,0.2-0.3,0.5-0.5,0.6c-0.5,0.4-1.2,0.3-1.9,0.2c-0.3,0-0.7-0.1-1-0.1c-0.9,0-2.3,0.4-3,1.3c-0.4,0.5-0.5,1.1-0.3,1.8
		c0.1,0.1,0.1,0.2,0.2,0.4c0,0.1,0.1,0.1,0.1,0.2c0.1,0.2,0,0.6-0.3,0.8c-0.3,0.3-0.8,0.4-1.3,0.4c-0.6,0.1-1.3,0.1-1.8,0.6
		c-0.2,0.2-0.3,0.4-0.4,0.6c-0.1,0.2-0.2,0.3-0.3,0.4c-0.1,0.1-0.2,0.1-0.4,0.2c-0.1,0.1-0.3,0.1-0.4,0.2c-1,0.6-1,1.8-1,2.8
		c0,0.5,0,0.8-0.1,1.1c-8.1-7.8-16.4-18.7-23-32.9h6.7c0.1,0.3,0.3,0.6,0.4,0.9c0.9,2.1,1.9,4.2,3.8,5.6c0.5,0.5,0.8,1.2,1.2,1.8
		c0.4,0.6,0.7,1.3,1.2,1.9c0.7,0.8,1.6,1.4,2.4,2c2.4,1.6,5.1,3.5,8.3,4.1c0.8,0.2,1.5,0.2,2.3,0.3c0.9,0.1,1.8,0.2,2.6,0.4
		c0.6,0.2,1.2,0.4,1.8,0.6c0.5,0.2,1,0.4,1.5,0.5c1.9,0.6,4,0.6,5.9,0.7c3.3,0.1,6.7,0.3,10-0.6l0.5-0.1c1.6-0.4,3.3-0.9,4.4,0
		c0.4,0.3,0.8,0.9,1.1,1.4c0.6,0.9,1.2,1.9,2.5,2c0.3,0,0.4,0,0.4,0c0.1,0.1,0.1,0.4,0.1,0.6c0,0.2,0,0.3,0,0.6
		c0.1,0.6,0.5,1.1,1.2,1.2c0.2,0,0.4,0.1,0.5,0.1c0.6,0,1.1-0.2,1.4-0.6c0.8-1,0.4-2.5-0.5-3.3l-0.1-0.1c-0.1-0.1-0.2-0.2-0.2-0.2
		c0,0,0-0.2,0.2-0.5c1.3-1.8,3.3-3,5.5-3.2c0.2,0,0.3,0,0.5,0c0.8,0,1.5-0.1,2.2-0.5l0.6-0.4l-0.7-0.4c-0.5-0.2-0.9-0.5-1.3-0.9
		c1.6-0.9,3.4-1.2,5.3,0.9c-5,7.5-10.3,13.7-15.6,18.6c-0.1-0.2-0.2-0.4-0.2-0.7l0-0.1c-0.1-0.2-0.2-0.3-0.3-0.5
		c-0.1-0.1-0.1-0.2-0.2-0.3c0-0.1-0.1-0.3-0.1-0.5c0-0.2,0-0.3,0-0.5c-0.2-0.9-0.9-1.6-2.1-2c-0.3-0.1-0.4-0.2-0.5-0.2
		c0.1-0.4,0.3-0.8,0.6-1.2C133.9,200.7,134.5,199.8,134,198.7 M107.8,90.9c-14,4.9-25.1,1.5-31.6-2c1.4-0.4,2.8-0.8,4.2-1.2
		c12.8-2.4,22.3-0.4,27.4,1.4C107.7,89.7,107.7,90.3,107.8,90.9 M112.7,91.4c0.8,1.1,1.8,1.9,2.9,2.6l0.6,0.3l0.1-0.6
		c0.2-1.1,0.1-2.4-0.4-3.8c0.9-0.5,1.9-1,2.8-1.6c0.2,0.5,0.4,0.9,0.7,1.4l0.3,0.6l0.4-0.5c0.4-0.5,0.6-1,0.9-1.6
		c9.2,5.5,17.5,7.4,24.7,7.4c8.8,0,15.8-2.9,20.3-5.4c0,0,0.4-0.3,0.7-0.4c1.8,0.5,3.5,0.9,5,1.3c0,0.3,0,0.6,0,0.7
		c1.5,14.9,1.2,28.5-0.3,40.6H68.4c-1.6-12.4-1.9-26.1-0.4-41.3c1.6-0.4,3.3-0.8,5.1-1.3C80.5,94.1,95,99.2,112.7,91.4 M104,60.1
		L104,60.1c0-0.1-0.1-0.3-0.1-0.4c0.9,0.8,1.9,1.4,3,1.7l0.6,0.2l-0.1-0.6c-0.1-1.3-0.8-2.8-1.9-4.1l0,0c-0.7-0.8-1.8-1.7-3-2.2
		c0.1-0.7,0.2-1.5,0.2-2.3l3,2.3l0.9,1.2l0.1,2.5c0.1,0.2,0.3,0.4,0.4,0.6c0.1,0.1,0.2,0.2,0.3,0.4l0.1,0.1c0.1,0.1,0.2,0.3,0.2,0.3
		c0,0.9,0.3,1.8,0.8,2.7c-0.1,0.1-0.2,0.3-0.3,0.4c-0.2,0.3-0.4,0.6-0.7,0.8c-0.5,0.6-0.9,1.2-1.1,2c-0.8-0.6-1.8-1.3-2.2-1.5
		C104.4,62.8,104.4,61.4,104,60.1 M105.2,26.5c0,0.6-0.1,1.2-0.2,1.8c-0.2,0.9-0.5,1.9-0.9,2.8c-0.7,1.4-1.8,2.5-2.8,3.2
		c0-2.2,0.8-4.4,2.3-6.1C104,27.4,104.6,26.9,105.2,26.5 M104.5,24.9c-1.8-0.2-3.2,0.3-4.4,1.4c0,0,0,0-0.1,0c0-0.5,0.1-0.8,0.3-1.2
		c0.2-0.3,0.3-0.6,0.5-0.8c0.4-0.5,0.9-1,1.6-1.3c0.4-0.2,0.8-0.3,1.1-0.3s0.7,0.1,1,0.1c0.4,0.1,0.6,0.3,0.7,0.8
		c0.1,0.3,0,0.6-0.2,1.2h-0.1C104.8,24.9,104.6,24.9,104.5,24.9 M101.9,40.9L101.9,40.9c0-0.4,0-0.7,0-1.1c0.8,1.1,1.8,1.9,3,2.4
		l0.6,0.2l0-0.6c0.1-1.3-0.4-2.9-1.3-4.3v0c-0.6-0.9-1.5-1.9-2.5-2.5c1.2-0.7,2.3-1.9,3.1-3.5l0,0c0.4-0.9,0.8-1.9,1-2.8
		c0.3,1.1,0.8,2.1,1.2,2.8c0.8,1.4,2,2.5,3.4,3.3c-1.5,2.6-1.6,5.8-0.3,8.3l0.3,0.6l0.4-0.5c0.8-0.9,1.3-2.2,1.5-3.7
		c0.8,1.7,2,3.1,3.4,4c-0.5,0.4-0.9,1-1.4,1.5c-1.3,1.7-1.9,4-1.6,6.1l0.1,0.6l0.6-0.3c1.1-0.6,2.1-1.7,2.8-3.2
		c0.3,1.8,1.1,3.6,2.2,4.9c-1.1,0.7-2.1,1.7-2.8,2.8c-0.8,1.3-1.2,2.8-1.2,4.3v0.6l0.6-0.2c1-0.3,2-1.2,2.8-2.3
		c-0.1,1.9,0.3,3.8,1.2,5.4c-0.6,0.2-1.1,0.6-1.7,0.9c-1.8,1.2-3,3.2-3.3,5.3l-0.1,0.6l0.6-0.1c1.1-0.2,2.2-0.8,3.3-1.8
		c-0.5,2.2-0.2,4.6,0.7,6.6c-0.7,0.8-1.2,1.6-1.7,2.6c-0.9,1.9-1.3,4.1-1,6.2c-1.3-1.2-2.9-2.4-4.9-3.7c-0.1-0.5-0.3-1-0.5-1.4l0,0
		c-0.1-0.2-0.2-0.4-0.3-0.6c0.8,0.3,1.6,0.4,2.4,0.4c0.2,0,0.4,0,0.6,0l0.6-0.1l-0.2-0.5c-0.5-1.2-1.6-2.4-3-3.3l0,0
		c-0.1-0.1-0.2-0.1-0.3-0.1c-0.1-0.9-0.3-1.9-1.4-2c-0.4-0.1-0.8,0-1.2,0.1c-0.1,0-0.2,0-0.2,0c-0.1,0-0.1-0.1-0.1-0.2
		c-0.3-0.8-0.4-1.5-0.5-2.3c0.6,0.4,1.3,0.8,2,1l0.6,0.2v-0.6c0-1.3-0.6-2.8-1.6-4.2l0,0c-0.1-0.1-0.3-0.3-0.6-0.5
		c0.1-0.2,0.2-0.5,0.3-0.7c0.6-0.9,1.2-1.8,1.8-2.6c0.1-0.1,0.3-0.3,0.4-0.2c-0.7-0.4-1.2-0.9-1.3-1.8c-0.1-0.6-0.1-1.3,0-1.9
		c0-0.1,0.1-0.2,0.2-0.3c-0.5-0.1-0.8-0.6-0.9-1c-0.1-0.4-0.2-1-0.1-1.5l0-0.2l-1.8-2.8c0,0-1.9,0-2.9-1.7c0,0,0-0.1-0.1-0.1
		c0-0.3-0.1-0.6-0.1-0.9c0.7,0.6,1.6,1.1,2.4,1.4l0.6,0.2l0-0.6c0-1.3-0.6-2.8-1.7-4.2l0,0c-0.8-1-1.9-1.9-3.1-2.4
		C101.4,43.7,101.8,42.3,101.9,40.9 M101.1,35.6c0.9,0.6,1.8,1.5,2.4,2.3c0.6,1,1,2.1,1.1,3.1c-0.9-0.5-1.7-1.2-2.2-2.1
		c-0.4-0.6-0.6-1.2-0.9-1.8c-0.1-0.3-0.2-0.6-0.3-0.9C101.2,36,101.1,35.8,101.1,35.6 M106.2,26.5c1.2,0.8,2.4,1.9,3.1,3.2
		c0.8,1.4,1.3,2.9,1.4,4.2c-1.2-0.7-2.2-1.7-3-2.9C106.9,29.5,106.4,27.9,106.2,26.5 M111,35.4c0.4,1,0.5,2.2,0.5,3.4
		c-0.1,1.2-0.4,2.3-0.9,3.1C109.8,39.9,109.9,37.5,111,35.4 M112,35.1c1.2,0.8,2.3,2,3,3.3c0.6,1.2,1,2.4,1.1,3.6v0.5
		C113.8,41.3,112.3,38.3,112,35.1 M116.1,44.2c0,0.1,0,0.3,0,0.4c0,0.2,0,0.4,0,0.6c-0.1,0.8-0.3,1.6-0.6,2.4
		c-0.5,1.1-1.1,2-1.8,2.5c-0.1-1.7,0.4-3.4,1.5-4.8C115.4,45,115.7,44.6,116.1,44.2 M120.7,59.1c0,1.6-0.3,3-0.8,4.2l-0.1-0.1
		c-0.9-1.9-1.3-4.1-0.9-6.3c0.2-0.8,0.4-1.6,0.7-2.3C120.3,55.9,120.7,57.5,120.7,59.1 M120.2,52.5c0.9,0.6,1.7,1.5,2.2,2.5
		c0.6,1,0.9,2.2,0.9,3.2c-1.3-0.9-2.3-2.3-2.8-3.9C120.4,53.7,120.3,53.1,120.2,52.5 M117.9,83c-0.3,0.7-0.7,1.3-1.1,1.8
		c-0.5-2.1-0.3-4.5,0.7-6.5c0.4-0.8,0.8-1.4,1.2-2c0.1,0.6,0.2,1.1,0.2,1.7c0,0.5,0,1.1-0.1,1.7c-0.3,0.7-0.6,1.5-0.8,2.3
		C118,82.3,118,82.7,117.9,83 M118,86c0,0-0.1,0-0.1,0.1c-0.2-0.2-0.4-0.4-0.6-0.6c0.2-0.2,0.4-0.4,0.6-0.6
		C117.9,85.3,117.9,85.6,118,86 M111.4,85.1c1.2,0.9,2.2,2.1,2.9,3.4c0.7,1.4,1.1,3,1,4.3c-1.7-1.2-3-3.1-3.6-5.3
		C111.6,86.8,111.4,85.9,111.4,85.1 M111.5,89.4c-0.1,0-0.1,0.1-0.2,0.1c-0.1-0.1-0.3-0.1-0.5-0.2c0.1-0.2,0.1-0.4,0.2-0.6l0,0
		c0-0.1,0.1-0.3,0.1-0.4C111.2,88.7,111.4,89.1,111.5,89.4 M114.9,87.7c-0.9-1.5-2.1-2.8-3.4-3.7c0-0.6-0.1-1.5-0.3-2.5
		c2.1,1.4,3.7,2.8,4.9,4c0,0.1,0,0.1,0.1,0.2l0.2,0.6l0.3-0.3c0.1,0.1,0.3,0.3,0.4,0.4c0,0-0.1,0-0.1,0.1c-0.5,0.3-0.9,0.5-1.4,0.8
		C115.3,87.4,115.1,87.6,114.9,87.7 M118.8,83.3c0.3-0.7,0.6-1.4,0.8-2.1l0,0c0.1-0.4,0.1-0.8,0.2-1.2c0.2,0.5,0.4,1,0.6,1.6
		c0.3,0.9,0.4,1.9,0.4,2.9c0,1.6-0.4,3.1-1,4.2C118.9,87.1,118.6,85.1,118.8,83.3 M119.8,75.8c0.8,0.8,1.4,1.7,1.8,2.7
		c0.4,1.1,0.6,2.1,0.6,3.1C120.6,80.2,119.7,78,119.8,75.8 M119,74.3c-0.8-2-0.8-4.4-0.1-6.6c0.3-0.8,0.6-1.5,1-2.2
		c0.2,0.5,0.3,1.1,0.4,1.7c0.2,0.9,0.2,2,0.1,3C120.2,71.8,119.7,73.2,119,74.3 M117.6,67.6c-0.8,0.9-1.7,1.5-2.5,1.8
		c0.4-1.6,1.5-3.1,2.8-4c0.5-0.3,0.9-0.6,1.4-0.8c-0.1,0.3-0.2,0.6-0.3,0.9l-0.1,0.3C118.5,66.3,118.1,67,117.6,67.6 M117.5,45.1
		c0.2,0.3,0.4,0.5,0.7,0.8c0.4,0.8,0.8,1.6,1,2.4c0.3,1,0.3,2.1,0.3,3l-0.1,0.3c0,0.1,0,0.2,0,0.3c0,0.2-0.1,0.4-0.1,0.6l-0.1,0
		c-1.4-1.6-2.2-3.7-2.3-5.9c0-0.4,0-0.9,0-1.4c0-0.2,0.1-0.4,0.1-0.7c0,0,0-0.1,0-0.1C117.2,44.7,117.3,44.9,117.5,45.1 M117.3,43.1
		c1,0.3,2.1,0.7,2.9,1.4c0.9,0.7,1.6,1.7,2,2.6c-1.2-0.2-2.3-0.8-3.3-1.7C118.4,44.5,117.9,43.7,117.3,43.1 M118.7,53.9
		c-0.1,1-0.5,2.2-1.1,3.3c-0.6,1-1.4,1.8-2.2,2.2c0.1-1.1,0.5-2.2,1-3.1C117,55.4,117.8,54.5,118.7,53.9 M110,75.6
		c1,0.6,1.8,1.4,2.3,2.2c-1,0-2-0.3-2.9-0.8c-0.2-0.1-0.5-0.3-0.7-0.5c-0.6-0.3-1.4-1.3-1.3-1.3c-0.2-0.2-0.3-0.4-0.5-0.6
		C108,74.7,109.1,75.1,110,75.6 M107.6,74c0,0,0-0.1,0.1-0.1c0.2-0.3,0.4-0.4,0.6-0.5c0.1-0.1,0.3-0.1,0.4-0.1c0.1,0,0.2,0,0.3,0.1
		c0.1,0.1,0.1,0.1,0.2,0.2s0.1,0.2,0.1,0.3c0,0.1,0,0.3,0,0.4c0,0.1,0,0.1,0,0.2C108.8,74.3,108.2,74.1,107.6,74 M103.2,47.8
		c0.7,0.9,1.2,2,1.4,2.9c-1-0.4-1.9-1.2-2.6-2.1c-0.3-0.8-0.7-1.6-1.2-2.4c-0.1-0.2-0.1-0.4-0.2-0.6
		C101.6,46.2,102.6,46.9,103.2,47.8 M102.3,55.4c1,0.4,2,1.3,2.6,1.9c0.8,0.9,1.3,1.9,1.5,2.9c-0.9-0.4-1.8-1-2.5-1.8
		C103.2,57.6,102.7,56.6,102.3,55.4C102.3,55.4,102.3,55.4,102.3,55.4 M107,67.2c0.7,0.9,1.2,2,1.4,3c-1.4-0.6-2.6-1.9-3.3-3.4
		c-0.2-0.5-0.5-1.1-0.6-1.7C105.4,65.6,106.3,66.3,107,67.2 M106.8,76c0.4,0.4,0.8,0.8,1.3,1.2c0.6,0.6,1.1,1.4,1.5,2.1
		c0.7,1.4,1.1,3,1,4.3c-1.7-1.2-3-3.1-3.6-5.3c0-0.2-0.1-0.4-0.1-0.6c0-0.5-0.1-1-0.2-1.4c0-0.1,0-0.3,0-0.4
		C106.7,75.9,106.8,75.9,106.8,76 M110.2,88.4c-0.4,1.1-0.9,2.1-1.5,2.7c-0.1-1-0.1-2.1,0.2-3.1c0.4-1.1,0.9-2.2,1.6-2.9
		C110.6,86.2,110.5,87.4,110.2,88.4 M129.7,90c3.9-1.7,14.6-5.2,29.8-2.3c1.4,0.4,2.6,0.7,3.9,1.1C155.5,93,143.9,95.8,129.7,90
		 M171.2,134.8c-1.9,14-5.5,26.2-10.1,36.6h-40v-1.1l2.7-5.7l-2.6-7.8c1.4,0.2,2.8,0.6,4.1,1.4c0.3,1.1,1.6,5.9,3.7,6.6
		c0.8,0.3,1.7,0.4,2.7,0.4c1.9,0,3.8-0.4,4.6-0.9l0.5-0.3l-0.5-0.4c0,0-1.6-1.2-3.2-2.8c-2.1-2.1-2-6.2-1.9-8.3c0-0.2,0-0.4,0.1-0.7
		c0.3-3,1.2-12.2-6.6-13.7c-1.7-0.3-3.4-0.3-5,0c-1.5,0.3-2.9,0.7-4.2,1.4c-1.1,0.5-2.2,1.2-3.2,1.9c-0.6,0.4-1.2,0.8-1.7,1.4
		c-0.6,0.6-0.7,1.3-0.9,2.1c-0.1,0.8-0.2,1.5-0.2,2.3c0,0.4,0,0.9,0.3,1.3c0.6,0.8,1.1,0.6,1.5,0.4c0.1,0,0.2-0.1,0.3-0.1
		c0.1,1.1-0.4,5.5-1,9.5l-0.1,0.9l0.8-0.5c0,0,2.7-1.6,6.2-2l-2.6,7.8l2.8,5.7v1.1H78.9c-4.6-10.4-8.2-22.6-10.2-36.6L171.2,134.8
		L171.2,134.8z M145.4,188.1c0.4,0.3,0.7,0.6,1.1,0.9c-0.3,0.1-0.7,0.1-1,0.1c-0.2,0-0.4,0-0.5,0c-2.4,0.2-4.7,1.5-6.1,3.5
		c-0.1,0.2-0.5,0.8-0.3,1.3c0.1,0.3,0.3,0.4,0.5,0.6l0.1,0c0.6,0.5,0.9,1.5,0.4,2.1c-0.3,0.3-0.7,0.4-1,0.3c-0.1,0-0.5-0.2-0.5-0.5
		c0-0.2,0-0.3,0-0.5c0-0.5,0-0.9-0.3-1.3c-0.2-0.2-0.6-0.3-1-0.3c-0.8-0.1-1.2-0.8-1.7-1.6c-0.4-0.6-0.8-1.2-1.3-1.7
		c-1.5-1.2-3.5-0.6-5.2-0.2l-0.5,0.1c-3.1,0.8-6.5,0.7-9.7,0.6c-1.9-0.1-3.9-0.1-5.7-0.7c-0.5-0.1-1-0.3-1.5-0.5
		c-0.6-0.2-1.3-0.5-1.9-0.6c-0.9-0.2-1.9-0.3-2.8-0.4c-0.7-0.1-1.5-0.2-2.2-0.3c-2.9-0.6-5.6-2.4-7.9-4c-0.8-0.6-1.6-1.1-2.3-1.9
		c-0.4-0.5-0.8-1.1-1.1-1.7c-0.4-0.7-0.8-1.4-1.4-2c-1.7-1.4-2.6-3.3-3.6-5.4c-0.1-0.2-0.2-0.4-0.3-0.5h72.4c-2.4,5.2-5,10-7.8,14.3
		c-2.6-2.7-5-1.7-6.7-0.6l-0.5,0.3L145.4,188.1L145.4,188.1z M115.8,164.5l2.6-7.8c0.6,0,1.2-0.1,1.8,0l2.6,7.8l-2.6,5.5l0,1.4h-1.7
		v-1.3L115.8,164.5L115.8,164.5z M127.5,146.6c-0.9-2.1-2.7-3.9-4.9-4.3c-1.8-0.3-3.7,0.4-5.3,1.3c-1.4,0.8-2.6,1.7-3.8,2.7
		c-0.5,0.5-1,1-1.6,1.4c-0.2,0.1-0.6,0.5-0.9,0.5c-0.3,0-0.4-0.4-0.4-0.6c0-0.9,0.1-1.9,0.2-2.8c0-0.3,0.1-0.6,0.2-0.8
		c0.2-0.3,0.4-0.6,0.7-0.9c3-2.6,6.9-4.4,10.9-4.4c1.6,0,3.3,0.3,4.6,1.2c1.9,1.3,3,3.5,3.3,5.8c0.4,2.2,0.1,4.5,0,6.8
		c-0.1,2.3,0,4.6,0.8,6.7c0.8,1.9,2.2,3.5,4,4.5c-1.5,0.5-3.2,0.7-4.8,0.5c-0.5-0.1-1.1-0.2-1.5-0.5c-0.5-0.3-0.9-0.9-1.1-1.4
		c-0.7-1.2-1.2-2.6-1.5-3.9c-0.1-0.3-0.1-0.6-0.3-0.8c-0.1-0.1-0.3-0.3-0.5-0.3c-2.1-1.2-4.6-1.6-7-1.5s-4.8,0.8-6.9,1.8
		c0.5-2.9,0.8-5.8,0.9-8.7c0-0.1,0-0.3,0-0.5c0,0,0-0.1,0-0.1c0.1-0.2,0.2-0.3,0.3-0.4c1.7-1.5,3.5-2.9,5.6-3.9
		c1.5-0.7,3.3-1.2,4.8-0.6c0.9,0.3,1.6,1,2.2,1.8c1.8,2.3,2.1,5.3,2.4,8.1c0.3,0,0.6,0,0.9,0C128.6,151,128.4,148.7,127.5,146.6
		 M182,68.5c1.2-1.1,2.5-2.2,4.2-2.4c1.5-0.2,3.2,0.1,5.2,1c3.8,1.5,5.2,1.1,6.4,0.7l0.3-0.1c0.8-0.3,2.1-1.1,3.1-1.8l-1.3,3.8
		l5.1,0.4c-0.9,0.8-2.6,2-5.4,3c-3.9,1.1-6.9-0.4-9.5-1.6c-0.8-0.4-1.5-0.7-2.2-1c-2.7-1-5.7-0.8-8.2,0.4
		C180.2,70.1,181.1,69.3,182,68.5 M178.9,72.4c1.5-1.1,3.4-1.6,5.3-1.6c0.6,2.7,2.7,4.6,3.8,5.4c-0.9,0.8-3,2.3-7.6,2.5
		C180,77.9,178.2,75.2,178.9,72.4 M150.7,74.7L150.7,74.7c4.4,0,9,0.7,13.6,2.2c15.1,4.6,21.8,2.2,24,0.4c-0.5,3-2.1,10.1-6,12.6
		c-3.6,2.4-9.2,0.8-17-1.4c-1.7-0.5-3.6-1-5.6-1.5c-16.5-3.2-27.8,1.1-31.1,2.6c-0.7-0.3-1.4-0.6-2.1-1c-0.1-0.1-0.3-0.2-0.4-0.3
		c-0.6-0.3-1.1-0.7-1.7-1c-0.5-0.3-0.9-0.5-1.4-0.8c0,0-0.1,0-0.1-0.1C126.4,82.8,135.8,74.7,150.7,74.7 M133.3,76.2
		c0.1,0.1,0.2,0.3,0.3,0.4c0.1,0.2,0.2,0.4,0.2,0.6c0,0.5-0.6,0.7-1,0.5c-0.7-0.3-1.4-0.9-1.9-1.3c-0.7-0.6-2.3-2.9-0.9-3.6
		c0.8-0.4,1.5,0.5,1.9,1C132.5,74.6,132.9,75.4,133.3,76.2 M133.5,30.4c1.5-2.4,0.7-5.8-0.1-8.1l-0.1-0.4c-1.8-6.1-2.9-11,1.8-13.4
		c2.5-1.3,5.9-1.8,10.2-1.6c10.5,0.5,21.3,4.4,31.9,11.5c12.4,8.3,23.8,17,34.8,26.7c1.6,1.4,3.3,2.9,5,4.2
		c4.3,3.6,8.7,7.3,12.5,11.5c1.1,1.2,2.1,2.3,2.5,3.6c-1-0.4-1.9-1.1-2.9-1.7c-0.7-0.5-1.5-1-2.2-1.4c-1.4-0.9-2.1-1.3-3.4-2.5
		c-0.5-0.4-1.3-0.4-1.8,0c-0.5,0.5-0.6,1.2-0.2,1.8c0.3,0.4,0.4,0.6,0.5,0.8c-0.3-0.1-0.6-0.3-0.8-0.5l-0.1-0.1
		c-0.8-0.5-1.7-1.2-2.5-1.9c-0.7-0.6-1.4-1.1-2-1.6l-4.2-3l2.5,4.5c0.2,0.3,0.3,0.7,0.5,1c0,0,0,0,0,0c-1.4-1-2.9-1.7-4.4-2.4
		l-0.6-0.3c-0.5-0.3-1.1-0.2-1.5,0.1c-0.4,0.3-0.6,0.7-0.6,1.1c-1.1-0.6-2.1-1.4-3.1-2.2c-0.3-0.2-0.6-0.4-0.8-0.7l-1-0.8l-0.7,1.1
		c-0.1,0.1-0.1,0.2-0.2,0.3c0,0,0,0,0,0c-1.1-0.4-1.9-1-2.7-1.8c-0.4-0.4-0.9-0.7-1.4-1.1c-0.4-0.3-1-0.4-1.5-0.1s-0.8,0.7-0.8,1.3
		v0.1c0,0.3,0,0.8-0.1,1.1c0,0-0.1,0-0.1,0c-1.7-0.7-3.2-1.7-4.7-2.9c-0.9-0.6-1.7-1.2-2.6-1.8l-1-0.6l-0.6,1
		c-0.1,0.2-0.2,0.3-0.2,0.4c-2-0.8-3.8-2-5.5-3.3l-0.4-0.3c-0.3-0.2-1-0.8-1.8-0.3c-0.3,0.2-0.6,0.5-0.6,1.2
		c-0.6-0.2-1.6-0.8-3.4-2.1c-0.3-0.2-0.5-0.4-0.6-0.4c-0.8-0.6-1.4-0.4-1.9-0.3c0,0-0.1,0-0.1,0c-0.1,0-0.4-0.1-0.5-0.2
		c-1-0.5-2-1-2.9-1.7c-0.1-0.1-0.2-0.1-0.3-0.2c-0.6-0.5-1.5-1.2-2.4-1.1c-0.5,0.1-0.8,0.3-1.1,0.8c-0.6-0.2-1-0.2-1.5,0.1
		c-0.7,0.5-0.6,1.3-0.6,1.6c0,0.8-0.2,1.7-0.6,2.7c-0.1,0.3-0.3,0.4-0.3,0.4c0,0-0.2,0-0.5-0.3c0,0,0-0.1-0.1-0.1
		c-0.2-0.2-0.7-0.6-1.4-0.5c-0.3,0-0.7,0.2-1,0.7c-0.2,0.3-0.4,0.4-0.4,0.4c0,0-0.2-0.1-0.4-0.4l-0.1-0.2c-0.4-0.6-1-1.3-1.9-1.7
		c0-0.1-0.1-0.2-0.2-0.3l-0.1-0.2c-0.3-0.4-0.8-0.7-1.3-0.6s-1,0.4-1.2,0.8l0,0.1c-0.2-0.3-0.6-0.6-1.1-0.6c-0.4,0-0.8,0.1-1,0.3
		c-0.7-0.4-1.6-0.5-2.4-0.3c-0.4-0.1-0.8,0-1,0.1c-0.6,0.3-0.9,1-0.9,1.2c-0.1,0.3-0.2,0.8-0.3,0.9c-1,0.5-1.3,1.2-1.5,1.7l0,0.1
		c-0.1,0.3-0.2,0.5-0.3,0.6c-0.3-0.3-0.8-0.3-1.2-0.3c-0.5,0.1-0.8,0.4-1,0.8c-0.3,0.8-1,1.3-1.8,1.8v0c0-0.1-0.1-0.3-0.1-0.5
		c0-0.3-0.1-0.7-0.3-1.1l-1.1-3l-1.2,3.3c-0.1,0.2-0.1,0.3-0.2,0.6c-0.3,0.9-1.4,1.7-2,1.6c-0.1,0-0.4,0-0.6-0.8c0-0.1,0-0.1,0-0.2
		c0-0.3-0.1-0.9-0.5-1.4l-1,0.8c-0.3-1.4-1.3-2.9-1.5-3.2c-0.3-0.6-0.1-1.8,0.6-3.1c0.7-1.4-1.1-4.6-1.1-4.6c2.6-3.1,1.2-7-0.1-9.4
		C132.2,31.8,132.9,31.2,133.5,30.4 M128.6,31.4c0.2,0.2,0.5,0.4,1.1,0.6c0,0,0.1,0.1,0.1,0.1c1,1.2,1.5,2.5,1.9,4
		c0.2,0.8,0.3,1.7,0.1,2.6c-0.2,0.6-0.5,1.3-1,1.7c-0.3,0.3-0.6,0.6-0.9,0.9c0,0-0.1,0.1-0.2,0.2c-0.8,0.4-2.1,0.9-4.1,1.2
		c0,0-1.5,1.1,4.5-0.2c0.3,0.4,0.6,0.8,0.9,1.2c0.3,0.6,0.5,0.9,0.4,1.5c0,0.5-0.4,1.2-0.5,1.6c-0.2,0.5-0.3,1.1-0.3,1.7
		c0.1,1.4,1.4,2.2,1.8,3.6c0.2,0.7,0,1.5-0.4,2c-0.2,0.2-0.7,0.5-0.8,0.7c-0.1,0.2,0.2,0.6,0.2,0.8c0.1,0.4,0,1.1-0.1,1.5
		c-0.1,0.5-0.5,0.9-0.9,1c0.1,0,0.1,0.1,0.2,0.3c0.1,0.6,0.1,1.3,0,1.9c-0.2,0.8-0.6,1.3-1.3,1.8c0.2,0,0.3,0.1,0.4,0.2
		c0.7,0.8,1.3,1.7,1.8,2.6c0.6,1,0.7,2.4,0.8,3.5c0,1.2-0.1,2.4-0.5,3.6c0,0.1,0,0.1-0.1,0.2c-0.1,0-0.1,0-0.2,0
		c-0.4-0.1-0.8-0.1-1.2-0.1c-1.3,0.2-1.4,1.5-1.4,2.6l-1.9-2.1c0,0-1.1,3.6-4.6,4.1c0,0,3,0.5,5.3-2.6c0.1,0.3,0.3,0.5,0.4,0.8
		c0.4,0.7,1,1.3,1.6,1.9c0.6,0.6,1.2,1.2,2,1.6c0.1,0,0.1,0.1,0.2,0.1c-4.9,2.6-8.1,5.7-9.9,7.6c-0.2-0.1-0.4-0.2-0.5-0.3
		c0.1-0.4,0.1-0.9,0.1-1.3l0,0c0-0.8-0.1-1.6-0.3-2.4c0.3,0.3,0.6,0.5,0.8,0.7l0.5,0.4l0.2-0.6c0.3-1.2,0.1-2.8-0.5-4.3l0,0
		c-0.6-1.4-1.5-2.6-2.6-3.6c0.8-1.1,1.3-2.7,1.5-4.4l0,0c0.1-0.7,0.1-1.3,0-2c0.9,1.2,2.1,2.1,3.4,2.5l0.6,0.2v-0.6
		c0-1.3-0.6-2.9-1.5-4.2l0,0c-0.8-1.1-1.9-2-3.1-2.6c0.6-1.2,0.9-2.9,0.9-4.6l0,0c0-0.5-0.1-1-0.1-1.5c0.6,0.7,1.4,1.3,2.1,1.7
		l0.6,0.3l0.1-0.6c0.2-1.3-0.2-2.9-1-4.4l0,0c-0.7-1.2-1.8-2.3-2.9-3.1c0.1-1.1,0-2.3-0.3-3.5l0,0c-0.1-0.4-0.2-0.7-0.3-1
		c1,0.6,2.1,0.9,3.1,1l0.6,0l-0.1-0.6c-0.3-1.3-1.2-2.6-2.5-3.7l0,0c-1-0.8-2.3-1.4-3.6-1.6c-0.1-1.3-0.5-2.8-1.3-4.2l0,0
		c-0.9-1.7-2.4-3.1-4-4.1l-0.2-0.1c-0.1-1.4-0.6-3.1-1.5-4.6l0,0c-0.5-0.8-1.1-1.4-1.7-2.1c0.2,0.1,0.4,0.1,0.5,0.2
		c0.5,0.1,1.7,1.4,2.2,1.8c0.2,0.2,0.5,0.3,0.8,0.4l0.1,1.8c0,0,1.1-1.7,2.1-1.8c0,0,2.6,1.1,2.9,3.8c0.1,1.3,0.2,3,0.5,4.3
		c0.1,0.3,0.1,0.5,0.3,0.7c0.2,0.2,0.4,0.3,0.7,0.3c1.6,0.3,3.4,0.1,4.8-0.8c0.7-0.4,1.5-1,1.5-1.8c0.1-1.1-0.2-2.1-0.6-3.1
		c-0.3-0.6-0.5-1.3-0.9-1.8c-0.2-0.3-0.4-0.6-0.6-0.9c-0.3-0.3-0.6-0.6-0.8-0.8c-0.1-0.1-0.1-0.1-0.1-0.2
		C123.2,29.1,126.7,29.1,128.6,31.4 M120.6,64.5c1,0.5,1.8,1.3,2.5,2.2c0.7,1,1.2,2.1,1.3,3c-1.4-0.7-2.6-2-3.3-3.6
		C120.9,65.6,120.7,65,120.6,64.5 M117.9,24.7l0,0.3c0,0.3,0,0.6-0.1,0.9c-0.2,0.9,0.2,1.4,0.8,1.9c0.1,0.1,0.3,0.2,0.4,0.3
		c0.1,0,0.1,0.1,0.2,0.1c1.4,1,2.5,2.2,3.4,3.7c0.6,1,1.3,2.2,1.5,3.4c0.2,1-0.6,1.8-1.4,2.3c-1.1,0.6-2.4,0.8-3.7,0.4
		c-0.1,0-0.3-0.1-0.4-0.2c-0.2-0.2-0.2-0.4-0.1-0.7c0-0.5,0-1,0-1.6l-0.1-0.7c0-0.1,0-0.2,0-0.3v-0.1c-0.1-2.4-1.2-4.3-3.4-5.9
		c-0.4-0.3-0.9-0.6-1.7-0.4c-0.2,0.1-0.3,0.1-0.5,0.1c-0.1,0-0.2,0-0.2,0c-0.4,0-0.6,0-0.9-0.3c-1.5-1.4-3.2-2.3-5-2.7
		c0,0,0,0-0.1-0.1c0.2-0.9,0.2-1.7-0.1-2.6c0.2-0.2,0.5-0.2,0.8-0.4c0.3-0.2,0.5-0.4,0.8-0.6c0.4-0.4,0.9-0.8,1.5-0.8
		c0.3,0,0.5,0.1,0.8,0.1c0.2,0.1,0.4,0.1,0.6,0.1c0.5,0.1,1,0.1,1.5-0.1c0.3-0.1,0.6-0.3,0.9-0.3c0.3,0.1,0.4,0.3,0.7,0.4
		c0.2,0.1,0.5,0.2,0.7,0.3c0.4,0.1,0.8,0,1.1-0.1c0.1,0,0.2-0.1,0.3-0.1C117.3,21.9,117.9,23,117.9,24.7 M111.2,18.6c1,0.4,2,0,2,0
		l0.2-0.1c0.7-0.3,1.2-0.4,1.6-0.4c0.5,0,0.9,0.1,1.2,0.4c0.2,0.2,0.4,0.4,0.4,0.6c0,0.1,0.1,0.4,0,0.7c-0.1,0.1-0.2,0.2-0.3,0.3
		c-0.4,0.4-1.1,0.5-1.6,0.2c-0.4-0.2-0.7-0.6-1.2-0.7c-0.5-0.1-0.7,0.2-1.1,0.4c-0.6,0.3-1.4-0.1-2.1-0.1c-1.4-0.2-2.3,0.7-3.2,1.6
		c-0.3,0.3-0.8,0.8-1.3,0.6c-0.2-0.1-0.4-0.2-0.6-0.4c-0.2-0.2-0.5-0.3-0.8-0.3c-0.5-0.1-1.1,0-1.6-0.2c-0.8-0.3-0.7-1.3-0.2-1.9
		c0.6-0.8,2.1-0.3,2.9,0.2c0.1,0.1,0.3,0.2,0.4,0.2c0.2,0,0.4-0.1,0.5-0.2l0.3-0.3C108.9,16.3,110.2,18.2,111.2,18.6 M96,50
		c-0.3,0.1-0.6,0.4-0.8,0.7c-0.1-0.1-0.1-0.3-0.2-0.5l-0.1-0.2c-0.2-0.5-0.5-1.3-1.5-1.7c-0.1-0.1-0.3-0.6-0.4-0.9
		c-0.1-0.2-0.3-0.9-0.9-1.2c-0.2-0.1-0.6-0.2-1-0.1c-0.9-0.3-1.7-0.2-2.4,0.3c-0.3-0.2-0.6-0.3-1-0.3c-0.5,0-0.9,0.3-1.1,0.6l0-0.1
		c-0.2-0.5-0.7-0.8-1.2-0.8c-0.5,0-1,0.2-1.3,0.6l-0.1,0.2c-0.1,0.1-0.1,0.2-0.2,0.3c-1,0.4-1.5,1.1-1.9,1.7l-0.1,0.2
		c-0.2,0.3-0.4,0.4-0.4,0.4c0,0-0.2-0.1-0.4-0.4c-0.1-0.2-0.5-0.7-1.1-0.7c-0.3,0-0.7,0-1.2,0.5c-0.4,0.3-0.6,0.4-0.6,0.4
		c-0.4-0.1-1-1.7-0.9-3.1c0-0.3,0-1.1-0.6-1.6c-0.4-0.3-0.9-0.3-1.4-0.1c-0.3-0.4-0.6-0.7-1.1-0.8c-1-0.2-1.8,0.5-2.4,1.1
		c-0.1,0.1-0.2,0.2-0.3,0.2l-0.6,0.4c-1,0.6-1.9,1.2-2.9,1.5c0,0,0,0-0.1,0c-0.5-0.2-1.1-0.3-1.9,0.2c-0.2,0.1-0.4,0.3-0.7,0.5
		c-1.1,0.8-2,1.3-2.6,1.7c-0.3,0.2-0.7,0-0.8-0.3c-0.1-0.2-0.3-0.5-0.6-0.6c-0.8-0.4-1.5,0.1-1.8,0.3l-0.4,0.3
		c-1.8,1.3-3.6,2.5-5.5,3.3c-0.1-0.1-0.1-0.3-0.2-0.4l-0.6-1l-1,0.6c-0.9,0.6-1.8,1.2-2.6,1.8c-1.6,1.1-3,2.2-4.8,2.9c0,0,0,0,0,0
		c-0.1-0.3-0.1-0.9-0.1-1.2v-0.1c0-0.6-0.3-1.1-0.8-1.3c-0.5-0.3-1.1-0.2-1.5,0.1c-0.5,0.4-0.9,0.8-1.4,1.1
		c-0.9,0.8-1.6,1.4-2.7,1.8c0-0.1-0.1-0.1-0.1-0.2c-0.1-0.2-0.2-0.5-0.3-0.8c-0.1-0.3-0.6-0.4-0.9-0.2c-0.2,0.2-0.4,0.3-0.6,0.5
		c-0.5,0.3-1,0.7-1.4,1.1c-0.9,0.7-1.7,1.3-2.6,1.8c0-0.4-0.2-0.9-0.6-1.1c-0.4-0.3-1.1-0.4-1.6-0.1l-0.6,0.3
		c-1.5,0.7-3,1.4-4.3,2.4c0,0,0,0-0.1,0c0.1-0.3,0.3-0.7,0.4-1c0,0,0-0.1,0-0.1c0.1-0.6,0.4-1.1,0.5-1.7c0.1-0.8-0.7-0.8-1.3-0.4
		l-1,0.6c0,0,0,0,0,0c-0.2,0.1-0.5,0.4-1,0.8c-2,1.7-3.5,2.8-4.3,3.3c0.1-0.2,0.2-0.4,0.5-0.8c0.4-0.6,0.3-1.3-0.2-1.8
		c-0.5-0.5-1.3-0.5-1.9,0c-1.5,1.4-3,2.4-4.7,3.3c-0.8,0.5-1.6,1-2.5,1.6c-0.4,0.3-0.9,0.5-1.2,0.7c0.4-1.3,1.5-2.5,2.6-3.7
		c3.7-4.1,8.2-7.8,12.5-11.4c1.7-1.4,3.4-2.8,5-4.2c11-9.6,22.4-18.3,34.8-26.7C73.2,11.3,84,7.5,94.5,7c3.4-0.2,9.4,0,12.2,3.2
		c1.3,1.6,1.8,4.3,1.3,7c-1.3-0.2-2.4,1.7-2.4,1.7c-0.7-0.3-1.4-0.6-2.1-0.5c-1.3,0.2-1.9,1.4-1.6,2.6l0,0.1
		c0.1,0.2,0.1,0.3,0.1,0.5c0,0.1-0.1,0.1-0.2,0.2c-0.1,0.1-0.1,0.1-0.2,0.1c-0.1,0.1-0.2,0.1-0.3,0.2c-0.2,0.1-0.3,0.3-0.5,0.4
		c-0.3,0.2-0.6,0.5-0.9,0.8c-1.3,1.4-1.7,3-1.1,4.9c0,0.1,0.1,0.2,0.1,0.3c0.6,1.7,0.4-1.1,1.9-1.8c1.3-0.6,2.5-0.7,3.4-0.7
		c-0.5,0.4-1,0.9-1.5,1.5c-1.6,1.8-2.5,4.3-2.5,6.7c-0.1,0-0.2,0.1-0.3,0.1l0,0c-2.1,0.5-3.9,2.3-4.3,4.4l-0.1,0.6l0.6,0
		c0.9,0,1.8-0.5,2.3-0.9c-0.6,2.3-0.5,4.7,0.3,6.8C97.3,46.4,96.3,48.1,96,50 M98.6,48.9c-0.1,0.3-0.1,0.5-0.2,0.8
		c-0.4,1-0.9,1.8-1.4,2.4c-0.1,0-0.1,0.1-0.2,0.1c-0.2-2.1,0.6-4.3,2.1-6c-0.1,0.8-0.2,1.6-0.2,2.4C98.6,48.7,98.6,48.8,98.6,48.9
		 M98.5,37.1c-0.5,0.5-1.1,0.9-1.7,1.1c0.5-1.3,1.7-2.5,3-3c0,0,0,0,0,0c-0.2,0.3-0.4,0.6-0.6,1C99,36.6,98.8,36.9,98.5,37.1
		 M99.4,38.4c0.2-0.6,0.4-1.2,0.6-1.8c0.1-0.1,0.2-0.3,0.3-0.4c0,0.1,0.1,0.2,0.1,0.3c0.1,0.3,0.2,0.7,0.3,1
		c0.3,1.1,0.4,2.2,0.3,3.3c-0.1,1.4-0.5,2.7-1,3.7l-0.3,0.4l-0.1-0.1C98.9,42.8,98.8,40.5,99.4,38.4 M99.5,49
		c0.2-0.9,0.3-1.8,0.3-2.6l0,0c0.1,0.1,0.2,0.3,0.3,0.4c0.1,0.4,0.3,0.7,0.4,1.1c0.2,0.5,0.5,0.9,0.8,1.3c0.2,0.4,0.3,0.9,0.4,1.3
		c0.3,1.4,0.3,2.8,0,3.9l-0.6-0.1C100.1,52.7,99.5,50.9,99.5,49 M100.4,55.8c-0.2,0.7-0.2,1.5-0.3,2.3c-0.1,0.4-0.2,0.8-0.3,1.1
		c-0.4,1.1-1.1,2-1.8,2.6C97.9,59.6,98.8,57.3,100.4,55.8C100.4,55.7,100.4,55.8,100.4,55.8 M102.2,69.3c-0.3,1.1-0.9,2.1-1.5,2.8
		c-0.4-2.1,0.3-4.5,1.8-6.3C102.6,66.9,102.4,68.3,102.2,69.3 M103.1,64.6C103.1,64.6,103.1,64.6,103.1,64.6l-0.3-0.3l-0.1-0.1
		c-1.1-1.6-1.8-3.6-1.8-5.6c0-0.1,0-0.2,0-0.3c0.1-0.6,0.3-1.4,0.3-2.1c0.9,1.2,1.6,2.6,1.9,4.1C103.5,61.8,103.5,63.4,103.1,64.6
		 M104.2,72.5c-0.7-1.7-1-3.8-0.6-5.9c1,1.2,1.7,2.6,2.1,4.1c0.3,1.1,0.4,2.1,0.3,3.2l0,0.2l-0.1,0.6c0,0,0,0,0,0
		c0,0.1,0,0.3-0.1,0.4C105.2,74.4,104.6,73.5,104.2,72.5 M105.1,77.9c0.2-0.5,0.5-1,0.8-1.5c0,0.4,0.1,0.8,0.2,1.2
		c0.1,0.7,0,1.5-0.1,2.2c-0.2,1.2-0.7,2.2-1.3,3C104.2,81.3,104.4,79.5,105.1,77.9 M52.2,70.5c-0.7,0.3-1.4,0.6-2.2,1
		c-2.6,1.3-5.6,2.7-9.5,1.6c-2.9-0.9-4.6-2.2-5.4-3l5.1-0.4l-1.3-3.8c0.9,0.6,2.2,1.5,3.1,1.8l0.3,0.1c1.2,0.4,2.6,0.8,6.4-0.7
		c2-0.8,3.7-1.1,5.2-1c1.8,0.2,3,1.3,4.2,2.4c0.8,0.7,1.7,1.5,2.4,2.4C57.9,69.7,54.9,69.5,52.2,70.5 M55.7,70.8
		c1.9,0,3.8,0.5,5.3,1.6c0.8,2.8-1,5.6-1.6,6.3c-4.6-0.2-6.7-1.6-7.6-2.5C53,75.4,55.2,73.5,55.7,70.8 M57.7,89.8
		c-3.9-2.5-5.5-9.6-6-12.6c2.2,1.8,8.9,4.3,24-0.4c4.6-1.4,9.2-2.2,13.6-2.2c5.9,0,10.8,1.3,15,3c-0.9,2-0.9,4.3-0.1,6.2l0.2,0.6
		l0.5-0.4c0.9-0.9,1.6-2.3,2-3.9c0.7,1.7,1.9,3.1,3.3,4.1c-0.8,0.9-1.6,2.1-2,3.5c0,0.1-0.1,0.3-0.1,0.4c-5.2-1.8-14.9-3.8-27.8-1.3
		c-1.8,0.5-3.5,0.9-5.1,1.4c-0.1,0-0.3,0.1-0.4,0.1C66.9,90.6,61.3,92.2,57.7,89.8 M63.7,103.8c-0.3,7.5-0.1,14.9,0.5,22l-5.9-3.9
		c-1.1-7.1-1.8-14.7-2.1-23.1L63.7,103.8L63.7,103.8z M64.5,128.8c1.9,19.4,7.1,37.2,15.3,52.7c3.4,6.4,7.3,12.4,11.6,17.8
		c-0.8,1-2.1,2.4-3.7,4c-2.4-2.5-4.8-5-7-7.7c-4.2-5.1-8.1-10.6-11.3-16.4c-3.2-5.9-5.9-12-7.9-18.3c-4-12.3-5.8-25.2-6.3-38.1
		L64.5,128.8L64.5,128.8z M30,81.7l16,10.5c0.2,8.3,0.6,15.8,1.4,22.6l-18.2-11.9C29.1,96.1,29.4,89,30,81.7 M44.4,207.8
		c-0.1-0.1-7.8-7.7-14.2-24.7c-5.8-15.5-11.6-42-6.6-81.1l19.1,12.5c0,2.3,0.1,4.6,0.2,6.9c0.5,13.3,2.2,26.7,6.4,39.3
		c2,6.3,4.7,12.5,7.9,18.3c3.2,5.8,7,11.3,11.3,16.4c3.9,4.7,8.1,9,12.6,13.1c-8.2,5.5-20.4,9.4-34.8,1.1
		C45.3,208.9,44.7,208.1,44.4,207.8 M48.9,212.2c5,2.4,9.7,3.3,14.1,3.3c15,0,25.7-11.3,29.1-15.5c4.2,5.2,8.8,9.8,13.4,13.6
		C78.4,231.9,57.7,219.7,48.9,212.2 M95.8,239.8c1.9-2.9,9.1-14.5,12-24.4c1.8,1.4,3.7,2.7,5.6,3.8l-3,23.1
		C108.9,241.6,104.3,239.7,95.8,239.8 M105.3,241.6c2.9,0.6,4.5,1.5,5,1.7c0,0.1,0,0.2-0.1,0.3c-0.3,0.3-1,0.9-3.3,1.1
		c-1.2,0.1-2,0.5-2.6,0.9L105.3,241.6z M112.7,253.8c-0.3,0.2-0.4,0.4-0.6,0.7l-0.1-3.9c0.4,0.1,0.7,0.3,0.9,0.4
		c0.6,0.4,0.7,1,0.7,1h0C113.6,252.3,113.6,253.1,112.7,253.8 M113.6,250.6c-1-0.9-2.5-1.1-3.9-1s-2.7,0.4-4.1,0.3
		c-0.5,0-1.1-0.2-1.4-0.5c-0.6-0.6-0.5-1.7,0-2.4s1.4-1,2.3-1.2c0.9-0.2,1.7-0.2,2.6-0.5c0.8-0.3,1.6-0.8,2-1.6
		c0.1-0.3,0.2-0.7,0.2-1.1l1.2-9.7c0.2-1.6,0.4-3.2,0.6-4.9l0.6-4.9c0.1-0.8,0.2-1.6,0.3-2.4c0-0.2,0.1-0.4,0.1-0.6
		c0-0.1,0-0.2,0-0.3c0-0.1,0.1,0,0.2,0c0.4,0.2,0.7,0.4,1.1,0.6c0.2,0.1,0.4,0.2,0.5,0.3L113.6,250.6L113.6,250.6z M127.8,254.5
		c-0.2-0.2-0.4-0.5-0.6-0.7c-0.7-0.6-0.9-1.1-0.9-1.5l0-0.3c0,0,0.1-0.6,0.7-1c0.2-0.2,0.5-0.3,0.9-0.4L127.8,254.5L127.8,254.5z
		 M135.9,249c0,0.1-0.1,0.2-0.2,0.2c-0.5,0.5-1.2,0.6-1.9,0.7c-1.3,0-2.6-0.3-3.9-0.3c-1.3-0.1-2.7,0.1-3.7,0.9
		c-0.7-9.5-1.5-18.9-2.2-28.4c0-0.4-0.1-0.8,0.1-1.2c0.3-0.6,1-0.9,1.7-1.1c0.9,7.1,1.7,14.3,2.6,21.5c0.1,1.2,0.4,2.5,1.3,3.4
		c1.1,1,2.7,0.8,4.1,1.2C135,246.1,136.8,247.5,135.9,249 M135.5,245.7c-0.6-0.5-1.4-0.8-2.6-0.9c-2.3-0.2-3-0.8-3.3-1.1
		c-0.1-0.1-0.1-0.3-0.2-0.3c0.5-0.3,2.2-1.1,5-1.7L135.5,245.7L135.5,245.7z M144.1,239.8c-8.5-0.1-13.1,1.7-14.6,2.5l-3-23.1
		c1.8-1.1,3.7-2.4,5.6-3.8C135,225.3,142.2,236.9,144.1,239.8 M119.9,218.9c-4.8-2.4-10.5-6.2-16.2-11.6c0.2-0.5,0.2-1.2,0.2-1.8
		c0-0.9,0-1.7,0.6-2.1c0.1-0.1,0.2-0.1,0.3-0.2c0.2-0.1,0.4-0.2,0.6-0.4c0.2-0.2,0.3-0.4,0.4-0.6c0.1-0.1,0.1-0.3,0.2-0.4
		c0.3-0.3,0.7-0.3,1.3-0.4c0.6-0.1,1.4-0.1,1.9-0.7c0.5-0.5,0.7-1.2,0.4-1.8c-0.1-0.1-0.1-0.2-0.2-0.4c-0.1-0.1-0.1-0.1-0.1-0.2
		c-0.1-0.3,0-0.6,0.2-0.9c0.5-0.6,1.6-1,2.3-1c0.3,0,0.6,0,0.9,0.1c0.8,0.1,1.8,0.3,2.6-0.3c0.3-0.2,0.5-0.5,0.7-0.8
		c0.2-0.3,0.4-0.6,0.7-0.7c0.2-0.1,0.4,0,0.6,0c0.5,0,1.1,0,1.4-0.5l0.1-0.1c0.1-0.3,0.2-0.3,0.5-0.3l5.1,0.3c0.3,0,0.6,0,0.9,0.2
		c0.1,0.1,0.3,0.3,0.4,0.4c0.2,0.2,0.3,0.4,0.6,0.6c0.6,0.4,1.4,0.4,2.2,0c0.2-0.1,0.4-0.2,0.6-0.3c0.3-0.2,0.7-0.3,1-0.4
		c0.6-0.2,1.6,0.2,2.1,0.8c0.3,0.4,0.3,0.7,0.1,1c0,0-0.1,0.1-0.2,0.1c-0.2,0.1-0.5,0.3-0.6,0.7c-0.2,0.6,0.3,1.1,0.9,1.3l0.2,0.1
		c0.2,0.1,0.5,0.1,0.5,0.2c0.2,0.5-0.1,1.1-0.6,1.8c-0.3,0.5-0.7,1-0.8,1.6v0.1v0c0.1,0.6,0.8,0.9,1.1,1c0.4,0.1,1.4,0.5,1.5,1.3
		c0,0.1,0,0.3,0,0.4c0,0.3,0,0.5,0.1,0.8c0.1,0.2,0.2,0.3,0.3,0.5c0.1,0.1,0.1,0.2,0.2,0.2c0.1,0.5,0.2,0.8,0.4,1.1
		C130,213,124.6,216.6,119.9,218.9 M134.4,213.6c4.5-3.6,9-8.2,13.5-13.6c3.4,4.1,14.1,15.5,29.1,15.5c4.3,0,9-1,14-3.3
		C182,219.8,161.4,231.9,134.4,213.6 M209.7,183.1c-6.4,17-14,24.5-14.1,24.5c-0.3,0.4-1,1.2-2,2.1c-14.3,8.2-26.5,4.4-34.7-1
		c4.5-4,8.7-8.3,12.6-13c4.2-5.1,8-10.6,11.3-16.4c3.2-5.9,5.9-12,7.9-18.4c4.1-12.7,5.9-26,6.4-39.3c0.1-2.4,0.1-4.8,0.2-7.1
		l19-12.4C221.3,141.1,215.5,167.6,209.7,183.1 M225,99.9l-5.6-1.2l1.1-5.6l11.2-2.4L225,99.9L225,99.9z"/>
	<path class="st0" d="M153.6,81.2c0.6,0,1.2,0.1,1.9,0.1c0.3,0,0.6,0.1,0.7,0.2c0.3,0.1,0.4,0.4,0.4,0.8c0,0.3,0,0.6-0.1,0.9
		c0,0.2,0,0.4,0,0.4l0,0.2c0.3,0,0.6,0.1,1,0.1l0-0.1c-0.1-0.1-0.2-0.2-0.2-0.4c0-0.1,0-0.3,0-0.5c0-0.3,0-0.5,0.1-0.8
		c0-0.3,0-0.6-0.1-0.7c-0.1-0.1-0.3-0.3-0.5-0.4c0.3-0.1,0.5-0.2,0.7-0.4c0.2-0.2,0.3-0.5,0.3-0.8c0.1-0.6-0.1-1.1-0.7-1.4
		c-0.3-0.2-0.7-0.3-1.1-0.3c-1-0.1-1.9-0.2-2.9-0.2c-0.1,1.9-0.3,3.7-0.4,5.6c0.3,0,0.5,0,0.8,0.1C153.5,82.8,153.6,82,153.6,81.2
		 M153.9,78.7c0.7,0.1,1.4,0.1,2,0.2c0.3,0,0.5,0.1,0.7,0.2c0.3,0.2,0.4,0.5,0.4,0.9c0,0.4-0.2,0.6-0.4,0.7
		c-0.3,0.1-0.5,0.2-0.9,0.1c-0.6-0.1-1.3-0.1-1.9-0.1C153.8,79.9,153.8,79.3,153.9,78.7"/>
	<path class="st0" d="M163.1,83.6c0.3-0.4,0.6-0.9,0.7-1.5c0.2-0.7,0.1-1.4-0.2-2c-0.4-0.6-0.9-1-1.8-1.2c-0.8-0.1-1.7-0.3-2.5-0.4
		c-0.3,1.8-0.6,3.7-0.8,5.5c0.8,0.1,1.5,0.2,2.3,0.4C161.8,84.6,162.5,84.3,163.1,83.6 M159.4,83.6c0.2-1.4,0.5-2.8,0.7-4.2
		c0.5,0.1,1,0.1,1.5,0.2c0.7,0.1,1.1,0.4,1.3,0.8c0.2,0.4,0.3,1,0.1,1.7c0,0.2-0.1,0.4-0.2,0.6c-0.1,0.3-0.3,0.6-0.5,0.8
		c-0.3,0.2-0.5,0.4-0.9,0.4c-0.2,0-0.4,0-0.7,0C160.3,83.7,159.8,83.6,159.4,83.6"/>
	<path class="st0" d="M168.6,85.5c-1.1-0.3-2.3-0.6-3.4-0.9c0.1-0.6,0.3-1.2,0.5-1.8c1.1,0.3,2.1,0.5,3.2,0.8c0-0.2,0.1-0.4,0.2-0.6
		c-1.1-0.3-2.1-0.6-3.2-0.8c0.1-0.6,0.3-1.1,0.4-1.6c1.2,0.3,2.4,0.6,3.6,0.9c0.1-0.2,0.1-0.4,0.2-0.7c-1.5-0.4-2.9-0.8-4.4-1.1
		c-0.4,1.8-0.9,3.6-1.3,5.4c1.4,0.3,2.8,0.6,4.1,1C168.4,86,168.5,85.8,168.6,85.5"/>
	<path class="st0" d="M170.1,86.7c0.5-1.4,0.9-2.9,1.4-4.3c0.5,1.8,1,3.5,1.4,5.2c0.3,0.1,0.5,0.2,0.8,0.3c0.7-1.8,1.4-3.5,2-5.2
		c-0.3-0.1-0.5-0.2-0.8-0.3c-0.5,1.4-1.1,2.8-1.6,4.2c-0.4-1.8-0.9-3.5-1.4-5.2c-0.3-0.1-0.6-0.2-1-0.3c-0.6,1.8-1.1,3.6-1.7,5.3
		C169.6,86.5,169.8,86.6,170.1,86.7"/>
	<path class="st0" d="M140.4,83.9c0.3,0,0.5-0.1,0.8-0.1c-0.1-0.7-0.1-1.5-0.2-2.2c0.7-1.2,1.4-2.4,2.1-3.5c-0.3,0-0.7,0.1-1,0.1
		c-0.6,0.9-1.1,1.9-1.6,2.9c-0.7-0.8-1.4-1.6-2.1-2.5c-0.3,0-0.7,0.1-1,0.1c0.9,1,1.9,2,2.7,3C140.2,82.4,140.3,83.1,140.4,83.9"/>
	<path class="st0" d="M148.8,83.6c1,0,1.7-0.3,2.3-0.9c0.5-0.5,0.7-1.2,0.8-2.1c0-0.8-0.1-1.4-0.5-1.9c-0.5-0.6-1.3-1-2.4-1
		c-1.1,0-1.9,0.4-2.4,1.1c-0.4,0.6-0.6,1.2-0.6,2c0,0.8,0.3,1.5,0.8,2.1C147.2,83.3,147.9,83.6,148.8,83.6 M147.3,79
		c0.4-0.4,0.9-0.6,1.6-0.6s1.2,0.2,1.5,0.6c0.4,0.4,0.5,0.9,0.5,1.6c0,0.6-0.2,1.2-0.5,1.6c-0.3,0.5-0.8,0.7-1.5,0.7
		c-0.8,0-1.3-0.2-1.6-0.6c-0.3-0.4-0.5-0.9-0.5-1.6C146.7,80,146.9,79.4,147.3,79"/>
	<path class="st0" d="M61.8,88.1c-0.6-1.6-1.2-3.2-1.8-4.8c-0.3,0.1-0.6,0.2-0.8,0.3c0.7,1.8,1.4,3.6,2.1,5.4
		c1.2-0.4,2.4-0.8,3.6-1.2c-0.1-0.2-0.1-0.4-0.2-0.6C63.7,87.4,62.7,87.7,61.8,88.1"/>
	<path class="st0" d="M64.2,82.1c0.6,1.8,1.2,3.7,1.8,5.5c0.3-0.1,0.5-0.1,0.8-0.2c-0.5-1.8-1.1-3.7-1.7-5.5
		C64.8,81.9,64.5,82,64.2,82.1"/>
	<path class="st0" d="M71.5,83.3c-0.2-0.1-0.4-0.2-0.8-0.2c0.2-0.1,0.3-0.3,0.4-0.4c0.2-0.3,0.2-0.6,0.1-0.9
		c-0.1-0.3-0.2-0.6-0.5-0.8c-0.4-0.3-1-0.4-1.7-0.3c-0.9,0.2-1.8,0.4-2.7,0.7c0.6,1.8,1.1,3.7,1.6,5.6c0.8-0.2,1.6-0.4,2.4-0.6
		c0.8-0.2,1.3-0.5,1.5-1c0.2-0.3,0.2-0.7,0.1-1.1C72,83.8,71.8,83.4,71.5,83.3 M67.9,83.5c-0.2-0.6-0.3-1.1-0.5-1.7
		c0.5-0.1,1-0.3,1.5-0.4c0.4-0.1,0.6-0.1,0.9-0.1c0.4,0.1,0.6,0.3,0.7,0.6c0.1,0.4,0,0.6-0.3,0.9c-0.2,0.1-0.4,0.3-0.8,0.3
		C68.9,83.2,68.4,83.3,67.9,83.5 M71.3,85c-0.1,0.3-0.5,0.5-0.9,0.6c-0.6,0.1-1.1,0.3-1.7,0.4c-0.2-0.7-0.4-1.3-0.5-2
		c0.6-0.1,1.1-0.3,1.6-0.4c0.3-0.1,0.6-0.1,0.9-0.1c0.4,0.1,0.7,0.3,0.8,0.7C71.4,84.6,71.3,84.8,71.3,85"/>
	<path class="st0" d="M77.8,83.9c-1.2,0.2-2.4,0.3-3.7,0.6c-0.1-0.6-0.3-1.3-0.4-1.9c1.1-0.2,2.3-0.4,3.4-0.5c0-0.2-0.1-0.4-0.1-0.7
		c-1.2,0.1-2.3,0.3-3.4,0.5c-0.1-0.6-0.2-1.1-0.4-1.7c1.3-0.2,2.5-0.4,3.8-0.6c0-0.2-0.1-0.5-0.1-0.7c-1.6,0.2-3.1,0.5-4.7,0.7
		c0.4,1.9,0.8,3.8,1.2,5.6c1.5-0.3,2.9-0.5,4.4-0.7C77.8,84.4,77.8,84.1,77.8,83.9"/>
	<path class="st0" d="M80.2,84.2c-0.1-0.8-0.2-1.6-0.3-2.4c0.6-0.1,1.3-0.1,1.9-0.2c0.3,0,0.6,0,0.8,0.1c0.3,0.1,0.5,0.4,0.5,0.7
		c0.1,0.3,0.1,0.6,0.1,1c0,0.2,0,0.4,0.1,0.4l0.1,0.2c0.3,0,0.7,0,1-0.1v-0.1c-0.1,0-0.2-0.1-0.3-0.3c0-0.1-0.1-0.3-0.1-0.5
		c0-0.3-0.1-0.5-0.1-0.8c0-0.3-0.1-0.6-0.3-0.7c-0.1-0.1-0.3-0.3-0.6-0.3c0.3-0.1,0.5-0.3,0.6-0.6c0.1-0.2,0.2-0.5,0.2-0.9
		c-0.1-0.6-0.4-1.1-1-1.3c-0.3-0.1-0.8-0.1-1.3-0.1c-1,0.1-2,0.2-3,0.3c0.3,1.9,0.6,3.8,0.8,5.7C79.6,84.2,79.9,84.2,80.2,84.2
		 M81.7,78.9c0.3,0,0.6,0,0.7,0.1c0.4,0.1,0.6,0.4,0.6,0.8c0,0.4-0.1,0.6-0.3,0.8c-0.2,0.2-0.5,0.3-0.9,0.3c-0.7,0-1.3,0.1-2,0.2
		c-0.1-0.7-0.2-1.3-0.3-2C80.3,79,81,79,81.7,78.9"/>
	<path class="st0" d="M86.3,78.6c0.1,1.7,0.2,3.4,0.2,5.1c0.3,0,0.6,0,0.9,0c0-1.7-0.1-3.4-0.2-5.1c0.7,0,1.5,0,2.2,0
		c0-0.2,0-0.5,0-0.7c-1.8,0-3.6,0-5.4,0.1c0,0.2,0,0.5,0.1,0.7C84.9,78.7,85.6,78.7,86.3,78.6"/>
	<path class="st0" d="M89.9,83.7c0.2-0.6,0.5-1.1,0.7-1.7c0.9,0,1.7,0.1,2.5,0.1c0.2,0.6,0.4,1.2,0.6,1.8c0.3,0,0.6,0,0.9,0.1
		c-0.6-2-1.4-4-2.1-5.9c-0.3,0-0.7,0-1,0c-0.8,1.9-1.6,3.8-2.4,5.7C89.3,83.7,89.6,83.7,89.9,83.7 M91.9,78.8
		c0.3,0.9,0.6,1.7,0.9,2.6c-0.7,0-1.3-0.1-2-0.1C91.2,80.5,91.5,79.7,91.9,78.8"/>
	<path class="st0" d="M100.3,83.3c0.3-0.5,0.5-1,0.6-1.6c0.1-0.8-0.1-1.5-0.4-2c-0.5-0.6-1.1-1-2.1-1.1c-0.9-0.1-1.8-0.2-2.7-0.3
		c-0.1,1.9-0.2,3.9-0.3,5.8c0.9,0.1,1.7,0.2,2.5,0.3C99,84.4,99.8,84.1,100.3,83.3 M96.3,83.4c0.1-1.5,0.2-2.9,0.3-4.4
		c0.5,0,1.1,0.1,1.6,0.2c0.7,0.1,1.2,0.4,1.5,0.8c0.3,0.4,0.4,1,0.3,1.7c0,0.2-0.1,0.4-0.1,0.6c-0.1,0.4-0.3,0.6-0.5,0.9
		c-0.3,0.3-0.6,0.4-0.9,0.5c-0.2,0-0.4,0-0.7,0C97.3,83.5,96.8,83.5,96.3,83.4"/>
	<path class="st0" d="M126.3,184.2h-0.1v-0.5h-0.8v-1.4h1.6v-3.7h-1.2h-0.3v-1.1c0-0.3-0.1-0.6-0.4-0.7c-0.2-0.1-0.6-0.1-0.8,0
		c-0.3,0.1-0.4,0.4-0.4,0.7v1.1h-2.7v-1.1c0-0.3-0.1-0.6-0.4-0.7s-0.6-0.1-0.8,0s-0.4,0.4-0.4,0.7v1.1H117v-1.1
		c0-0.3-0.1-0.6-0.4-0.7s-0.6-0.1-0.8,0c-0.2,0.1-0.4,0.4-0.4,0.7v1.1h-1.6v3.7h1.6v1.4h-1.1v0.5h-0.1l-1.1-1.3h-4l1.8,2.7l2.2,1.5
		l7,0h0l7,0l2.2-1.5l1.8-2.6h-4L126.3,184.2L126.3,184.2z M123.4,179.4h2.7v2h-2.7V179.4z M123.9,182.3v1.4h-1v0.6l-1,0v-0.6h-0.7
		v-1.4L123.9,182.3L123.9,182.3z M119.1,179.4h0.3c0.6,0,0.9-0.2,1.1-0.3c0.1,0.1,0.4,0.3,1.1,0.3h0.3v2h-2.7V179.4L119.1,179.4z
		 M119.7,182.3v1.4h-0.9v0.6l-1,0v-0.6H117v-1.4L119.7,182.3L119.7,182.3z M114.8,181.4v-2h2.7v2H114.8z M129.7,183.8l-0.8,1.2
		l-1.8,1.1l-6.8,0l-6.8,0l-1.8-1.1l-0.8-1.2h1.9l1.1,1.3l1.4,0v-0.5h1.6v0.6l2.7,0.1v-0.6h1.3v0.6l2.7-0.1v-0.6h1.6v0.5l1.4,0l1-1.3
		H129.7L129.7,183.8z"/>
	<path class="st0" d="M126.3,209.1h-0.1v-0.5h-0.8v-1.4h1.6v-3.7h-1.2h-0.3v-1.1c0-0.3-0.1-0.5-0.4-0.7c-0.2-0.1-0.6-0.1-0.8,0
		c-0.3,0.1-0.4,0.4-0.4,0.7v1.1h-2.7v-1.1c0-0.3-0.1-0.5-0.4-0.7s-0.6-0.1-0.8,0s-0.4,0.4-0.4,0.7v1.1H117v-1.1
		c0-0.3-0.1-0.5-0.4-0.7s-0.6-0.1-0.8,0c-0.2,0.1-0.4,0.4-0.4,0.7v1.1h-1.6v3.7h1.6v1.4h-1.1v0.5h-0.1l-1.1-1.3h-4l1.8,2.6l2.2,1.5
		l7,0h0l7,0l2.2-1.5l1.8-2.6h-4L126.3,209.1L126.3,209.1z M123.4,204.3h2.7v2h-2.7V204.3z M123.9,207.2v1.4h-1v0.6l-1,0v-0.6h-0.7
		v-1.4H123.9z M119.1,204.3h0.3c0.6,0,0.9-0.2,1.1-0.3c0.1,0.1,0.4,0.3,1.1,0.3h0.3v2h-2.7V204.3z M119.7,207.2v1.4h-0.9v0.6l-1,0
		v-0.6H117v-1.4H119.7z M114.8,206.3v-2h2.7v2H114.8z M129.7,208.7l-0.8,1.2l-1.8,1.1l-6.8,0l-6.8,0l-1.8-1.1l-0.8-1.2h1.9l1.1,1.3
		l1.4,0v-0.5h1.6v0.6l2.7,0.1v-0.6h1.3v0.6l2.7-0.1v-0.6h1.6v0.5l1.4,0l1-1.3H129.7L129.7,208.7z"/>
	<path class="st0" d="M105.9,74.6L105.9,74.6C105.9,74.6,105.9,74.6,105.9,74.6"/>
</g>
<g>
	<g>
		<path class="st0" d="M709,205.2l-98.5-89.1v89.1h-28.7V55.5h3.1l98.5,90.5V55.5H712v149.7H709z"/>
		<polygon class="st0" points="755.9,179.4 755.9,144.2 811.3,144.2 811.3,118.2 755.9,118.2 755.9,80.7 817.2,80.7 817.2,55.3 
			812.4,55.3 751.2,55.3 727.3,55.3 727.3,205.2 751.2,205.2 823,205.2 823,179.4 		"/>
		<path class="st0" d="M418.7,98.4c-3.8-9.5-9.3-17.6-16.7-24.3c-13.8-12.6-31.3-18.8-52.7-18.8h-59.1v25.8h59.2
			c5.2,0,10.5,0.6,16,1.8c5.5,1.2,10.4,3.6,14.9,7.2c4.5,3.6,8.2,8.6,11.1,15.1c2.9,6.5,4.3,14.9,4.3,25.3s-1.4,18.8-4.3,25.2
			c-2.9,6.4-6.5,11.4-11,15.1c-4.4,3.6-9.4,6-14.8,7.3c-5.5,1.2-10.9,1.8-16.2,1.8h-30.5v-57.5h-28.7v57.5l0,0v25.5h59.1
			c10.6,0,20.4-1.6,29.3-4.7c8.9-3.1,16.7-7.8,23.4-13.9c7.4-6.7,12.9-14.8,16.7-24.3c3.8-9.5,5.6-20.2,5.6-32
			S422.5,107.9,418.7,98.4L418.7,98.4z"/>
	</g>
	<path class="st0" d="M416.5,205.1L493,55.4h2.9l76.6,149.7h-31.1l-22.5-45l-49.8-0.2l-21.5,45.2H416.5z M482.2,137.3l24.5-0.1
		l-12.2-25.9L482.2,137.3L482.2,137.3z"/>
</g>
</svg>
